<svg width="60" height="60" viewBox="0 0 60 60" fill="none" xmlns="http://www.w3.org/2000/svg">
<g id="image 247 (traced)">
<g id="Black">
<path id="Vector" d="M28.1836 5.00401C18.4219 5.8126 10.1602 11.9298 6.62109 21.0001C5.48438 23.9415 4.99219 26.6251 4.99219 30.0001C4.99219 33.3751 5.48438 36.0587 6.62109 39.0001C11.6953 51.9962 26.2969 58.4063 39.1992 53.297C45.5742 50.7774 50.7773 45.5743 53.2969 39.1993C58.0078 27.3165 52.9688 13.8048 41.6016 7.81651C37.5234 5.67197 32.6016 4.62901 28.1836 5.00401ZM32.6836 10.2657C35.8477 10.7228 38.4375 11.7188 41.0273 13.4649C50.2383 19.6524 52.6758 31.8985 46.5352 41.0392C41.6719 48.2696 32.8008 51.5392 24.5156 49.1485C18.8555 47.5196 14.0508 43.2657 11.6953 37.7931C10.6758 35.4142 10.2188 33.4103 10.1133 30.7618C9.79688 23.0978 13.9453 15.9845 20.8594 12.3282C24.4102 10.4532 28.7813 9.69151 32.6836 10.2657Z" fill="white"/>
<path id="Vector_2" d="M29.0624 17.591C26.9999 18.4582 26.9062 21.3058 28.9101 22.3136C29.4491 22.5832 30.5976 22.5597 31.1601 22.2668C32.871 21.3996 33.0117 18.9972 31.4296 17.8839C31.0077 17.591 30.7968 17.5207 30.1406 17.4972C29.707 17.4738 29.2265 17.5207 29.0624 17.591Z" fill="white"/>
<path id="Vector_3" d="M29.0039 25.1133C28.3359 25.3828 28.1367 25.5586 27.8086 26.1094L27.4805 26.6602V33.7617V40.8633L27.832 41.4258C28.3242 42.2109 28.875 42.4805 30 42.4805C31.125 42.4805 31.6758 42.2109 32.168 41.4258L32.5195 40.8633V33.75V26.6367L32.168 26.0742C31.7109 25.3359 31.125 25.0312 30.1172 24.9961C29.6953 24.9844 29.2031 25.0312 29.0039 25.1133Z" fill="white"/>
</g>
</g>
</svg>
