<svg width="98" height="98" viewBox="0 0 98 98" fill="none" xmlns="http://www.w3.org/2000/svg">
<g id="image 247 (traced)">
<g id="Group">
<path id="Vector" d="M23 60.3437C23 74.4603 34.6943 86 49 86C63.3057 86 75 74.4603 75 60.3437C75 46.5632 63.9869 35.2475 50.1354 34.6874V28.1893L54.7904 25.6124C55.131 25.3883 55.3581 25.0522 55.3581 24.6041V13.1764C55.3581 12.2801 54.4498 11.8319 53.655 12.1681L49 14.7449L44.345 12.1681C44.0044 11.944 43.5502 11.944 43.2096 12.1681C42.869 12.3921 42.6419 12.7282 42.6419 13.1764V24.7161C42.6419 25.1643 42.869 25.5004 43.2096 25.7245L47.8646 28.3013V34.7994C34.0131 35.2475 23 46.5632 23 60.3437ZM72.7293 60.3437C72.7293 73.2279 62.0568 83.7593 49 83.7593C35.9432 83.7593 25.2707 73.2279 25.2707 60.3437C25.2707 47.7956 35.3755 37.6003 47.8646 36.9281V42.866C38.5546 43.4262 31.1747 51.0447 31.1747 60.3437C31.1747 69.9788 39.1223 77.9334 49 77.9334C58.7642 77.9334 66.8253 70.0908 66.8253 60.3437C66.8253 51.0447 59.4454 43.4262 50.1354 42.866V36.9281C62.738 37.4883 72.7293 47.7956 72.7293 60.3437ZM49 61.464C49.6812 61.464 50.1354 61.0159 50.1354 60.3437V53.2854C53.655 53.8456 56.2664 56.7585 56.2664 60.3437C56.2664 64.2649 52.9738 67.514 49 67.514C45.0262 67.514 41.7336 64.2649 41.7336 60.3437C41.7336 56.7585 44.4585 53.7335 47.8646 53.2854V60.3437C47.8646 60.9039 48.3188 61.464 49 61.464ZM47.8646 50.9326C43.0961 51.4928 39.4629 55.5261 39.4629 60.3437C39.4629 65.4973 43.7773 69.7547 49 69.7547C54.2227 69.7547 58.5371 65.4973 58.5371 60.3437C58.5371 55.5261 54.9039 51.4928 50.1354 50.9326V44.9947C58.1965 45.5549 64.5546 52.165 64.5546 60.2316C64.5546 68.6344 57.6288 75.5806 49 75.5806C40.4847 75.5806 33.4454 68.7464 33.4454 60.2316C33.4454 52.165 39.8035 45.5549 47.8646 44.9947V50.9326ZM44.9127 15.081L48.4323 16.9856C48.7729 17.2097 49.2271 17.2097 49.5677 16.9856L53.0873 15.081V24.0439L49 26.2846L44.9127 24.0439V15.081Z" fill="white" stroke="white"/>
</g>
</g>
</svg>
