<svg width="24" height="24" viewBox="0 0 24 24" fill="none" xmlns="http://www.w3.org/2000/svg">
<g id="Arrow &#34;To Right&#34;">
<path id="Subtract" d="M7.57292 15.978C5.48744 17.1443 4.43041 17.3071 3.57336 16.4934C2.91629 15.8695 2.80202 14.3777 3.34482 13.7267C3.5448 13.4826 5.4303 11.8823 7.54435 10.1464C9.97265 8.16633 11.601 7 12.0296 7C12.4295 7 14.1722 8.2477 16.829 10.4176C20.7429 13.6182 21 13.8895 21 14.8117C21 16.8731 19.1431 17.3613 16.5148 15.9509C15.4918 15.4052 14.4518 14.7847 13.3191 14.4636C12.7981 14.3158 12.3127 14.2811 11.8109 14.3411C10.3484 14.5159 8.81567 15.257 7.57292 15.978Z" fill="#A3C6FF"/>
</g>
</svg>
