<svg width="1824" height="408" viewBox="0 0 1824 408" fill="none" xmlns="http://www.w3.org/2000/svg">
<g style="mix-blend-mode:plus-darker" opacity="0.6">
<path d="M71.5054 -96L71.5054 562M640.587 -96V562M356.046 -96L356.046 562M925.127 -96V562M142.64 -96L142.64 562M711.722 -96V562M427.181 -96L427.181 562M996.262 -96V562M213.775 -96L213.776 562M782.857 -96V562M498.316 -96L498.316 562M284.911 -96L284.911 562M853.992 -96V562M569.451 -96V562M1.46936e-05 561.63L1067.03 561.629M0 277.09L1067.03 277.09M1.46936e-05 490.495L1067.03 490.495M1.46936e-05 205.952L1067.03 205.952M0 419.358L1067.03 419.358M0 134.819L1067.03 134.819M1.46936e-05 348.223L1067.03 348.223M1.46936e-05 63.6842L1067.03 63.6842M1.46936e-05 -7.45253L1067.03 -7.45257M1.46936e-05 -78.5873L1067.03 -78.5873" stroke="#FFBCD6" stroke-width="0.740991" stroke-dasharray="8.34 8.34"/>
<path d="M1055.51 -96L1055.51 562M1624.59 -96V562M1340.05 -96L1340.05 562M1909.13 -96V562M1126.64 -96L1126.64 562M1695.72 -96V562M1411.18 -96L1411.18 562M1980.26 -96V562M1197.78 -96L1197.78 562M1766.86 -96V562M1482.32 -96L1482.32 562M1268.91 -96L1268.91 562M1837.99 -96V562M1553.45 -96V562M984 561.63L2051.03 561.629M984 277.09L2051.03 277.09M984 490.495L2051.03 490.495M984 205.952L2051.03 205.952M984 419.358L2051.03 419.358M984 134.819L2051.03 134.819M984 348.223L2051.03 348.223M984 63.6842L2051.03 63.6842M984 -7.45253L2051.03 -7.45257M984 -78.5873L2051.03 -78.5873" stroke="#FFBCD6" stroke-width="0.740991" stroke-dasharray="8.34 8.34"/>
</g>
</svg>
