<svg width="151" height="151" viewBox="0 0 151 151" fill="none" xmlns="http://www.w3.org/2000/svg">
<path id="Vector" opacity="0.3" d="M134.587 59.0866C122.07 59.0866 108.798 62.4393 98.0052 66.116C108.357 61.0221 120.23 53.9841 128.884 45.3259C135.291 38.9187 135.291 28.5237 128.884 22.1164C122.476 15.7092 112.081 15.7092 105.674 22.1164C96.8258 30.9647 89.8093 42.725 84.7803 52.9515C88.4959 42.0294 91.9134 28.6576 91.9134 16.4134C91.9134 7.3491 84.5643 0 75.5 0C66.4357 0 59.0866 7.3491 59.0866 16.4134C59.0866 28.9298 62.4392 42.2022 66.116 52.9947C61.0221 42.6429 53.9841 30.7703 45.3259 22.1164C38.9187 15.7092 28.5237 15.7092 22.1164 22.1164C15.7092 28.5237 15.7092 38.9187 22.1164 45.3259C30.9647 54.1742 42.725 61.1906 52.9515 66.2197C42.0294 62.5041 28.6576 59.0866 16.4134 59.0866C7.34909 59.0866 0 66.4357 0 75.5C0 84.5643 7.34909 91.9134 16.4134 91.9134C28.9298 91.9134 42.2022 88.5607 52.9947 84.884C42.6429 89.9779 30.7703 97.0159 22.1164 105.674C15.7092 112.081 15.7092 122.476 22.1164 128.884C28.5237 135.291 38.9187 135.291 45.3259 128.884C54.1742 120.035 61.1906 108.275 66.2196 98.0485C62.504 108.971 59.0866 122.342 59.0866 134.587C59.0866 143.651 66.4357 151 75.5 151C84.5643 151 91.9134 143.651 91.9134 134.587C91.9134 122.07 88.5607 108.798 84.884 98.0053C89.9778 108.357 97.0159 120.23 105.674 128.884C112.081 135.291 122.476 135.291 128.884 128.884C135.291 122.476 135.291 112.081 128.884 105.674C120.035 96.8258 108.275 89.8094 98.0485 84.7803C108.971 88.4959 122.342 91.9134 134.587 91.9134C143.651 91.9134 151 84.5643 151 75.5C151 66.4357 143.651 59.0866 134.587 59.0866Z" fill="#C1EDA5"/>
</svg>
