<svg width="129" height="145" viewBox="0 0 129 145" fill="none" xmlns="http://www.w3.org/2000/svg">
<g id="Group 35" opacity="0.3">
<g id="Group 34">
<path id="Vector" d="M80.1684 15.6653C80.1684 41.2724 64.5032 72.0546 64.5032 72.0546C64.5032 72.0546 48.8379 42.0889 48.8379 15.6653C48.8379 7.01413 55.852 0 64.5032 0C73.1543 0 80.1684 7.01413 80.1684 15.6653Z" fill="#D9C2FF"/>
<path id="Vector_2" d="M23.4988 30.2951C45.6751 43.0987 64.499 72.0541 64.499 72.0541C64.499 72.0541 30.715 70.6356 7.83349 57.4238C0.341033 53.0983 -2.22381 43.5193 2.10177 36.0268C6.42735 28.5344 16.0063 25.9695 23.4988 30.2951Z" fill="#D9C2FF"/>
<path id="Vector_3" d="M7.83843 86.685C30.0148 73.8814 64.504 72.0547 64.504 72.0547C64.504 72.0547 46.3852 100.602 23.5037 113.814C16.0113 118.139 6.43232 115.57 2.10674 108.082C-2.21885 100.59 0.350098 91.0106 7.83843 86.685Z" fill="#D9C2FF"/>
<path id="Vector_4" d="M48.8379 128.444C48.8379 102.837 64.5032 72.0547 64.5032 72.0547C64.5032 72.0547 80.1685 102.02 80.1685 128.444C80.1685 137.095 73.1544 144.109 64.5032 144.109C55.852 144.109 48.8379 137.095 48.8379 128.444Z" fill="#D9C2FF"/>
<path id="Vector_5" d="M105.502 113.814C83.3259 101.01 64.502 72.0547 64.502 72.0547C64.502 72.0547 98.2861 73.4732 121.168 86.685C128.66 91.0106 131.225 100.59 126.899 108.082C122.574 115.574 112.995 118.139 105.502 113.814Z" fill="#D9C2FF"/>
<path id="Vector_6" d="M121.168 57.4249C98.9912 70.2285 64.502 72.0552 64.502 72.0552C64.502 72.0552 82.6208 43.508 105.502 30.2962C112.995 25.9706 122.574 28.5396 126.899 36.0279C131.225 43.5203 128.656 53.0993 121.168 57.4249Z" fill="#D9C2FF"/>
</g>
</g>
</svg>
