<svg width="30" height="30" viewBox="0 0 30 30" fill="none" xmlns="http://www.w3.org/2000/svg">
<g id="Frame">
<path id="Vector" d="M12.5 16.5363C12.677 16.8261 12.8871 17.1005 13.1303 17.3535C14.6396 18.9244 16.9402 19.17 18.697 18.0903C19.0225 17.8901 19.3293 17.6446 19.609 17.3535L23.6583 13.1393C25.4473 11.2773 25.4473 8.25845 23.6583 6.39648C21.8691 4.5345 18.9685 4.53451 17.1794 6.39648L16.2875 7.32473" stroke="black" stroke-width="2" stroke-linecap="round"/>
<path id="Vector_2" d="M13.7129 22.675L12.8206 23.6035C11.0316 25.4655 8.13089 25.4655 6.34182 23.6035C4.55273 21.7415 4.55273 18.7227 6.34182 16.8607L10.3911 12.6465C12.1802 10.7845 15.0809 10.7845 16.8699 12.6465C17.113 12.8994 17.323 13.1737 17.5 13.4635" stroke="black" stroke-width="2" stroke-linecap="round"/>
<path id="Vector_3" d="M26.2501 20H23.6515M20.0001 26.25V23.6514" stroke="black" stroke-width="2" stroke-linecap="round" stroke-linejoin="round"/>
<path id="Vector_4" d="M3.75012 10H6.34873M10.0001 3.75V6.34861" stroke="black" stroke-width="2" stroke-linecap="round" stroke-linejoin="round"/>
</g>
</svg>
