<svg width="30" height="30" viewBox="0 0 30 30" fill="none" xmlns="http://www.w3.org/2000/svg">
<g id="Frame">
<path id="Vector" d="M27.5 15C27.5 8.09644 21.9035 2.5 15 2.5C8.09644 2.5 2.5 8.09644 2.5 15C2.5 21.9035 8.09644 27.5 15 27.5" stroke="#1B1716" stroke-width="2" stroke-linecap="round"/>
<path id="Vector_2" d="M25 7.12374C23.8316 7.20795 22.3351 7.6603 21.2974 9.00346C19.4231 11.4295 17.5487 11.632 16.2992 10.8233C14.4249 9.61025 16 7.64545 13.8001 6.57769C12.3664 5.88177 12.1665 3.98806 12.9645 2.5" stroke="#1B1716" stroke-width="2" stroke-linejoin="round"/>
<path id="Vector_3" d="M2.5 13.75C3.45312 14.5776 4.78807 15.3353 6.36092 15.3353C9.61054 15.3353 10.2605 15.9561 10.2605 18.4397C10.2605 20.9234 10.2605 20.9234 10.9104 22.786C11.3331 23.9976 11.4809 25.2093 10.6383 26.25" stroke="#1B1716" stroke-width="2" stroke-linejoin="round"/>
<path id="Vector_4" d="M24.8735 24.911L27.5 27.5M26.3854 21.3074C26.3854 24.1006 24.1165 26.3649 21.3176 26.3649C18.5189 26.3649 16.25 24.1006 16.25 21.3074C16.25 18.5143 18.5189 16.25 21.3176 16.25C24.1165 16.25 26.3854 18.5143 26.3854 21.3074Z" stroke="#1B1716" stroke-width="2" stroke-linecap="round"/>
</g>
</svg>
