<svg width="128" height="72" viewBox="0 0 128 72" fill="none" xmlns="http://www.w3.org/2000/svg">
<g id="Logo" clip-path="url(#clip0_2053_508)">
<g id="Group 14">
<g id="Silver">
<path id="Vector" d="M22.498 67.2415C22.498 67.4035 22.568 67.444 22.798 67.444H23.098L23.118 69.1858L23.148 70.9377L23.588 70.9681C24.038 70.9985 24.228 70.8769 24.128 70.6137C24.098 70.5428 23.968 70.482 23.838 70.482H23.598V68.9225C23.598 68.0618 23.568 67.2921 23.538 67.201C23.498 67.0795 23.338 67.039 22.988 67.039C22.568 67.039 22.498 67.0694 22.498 67.2415Z" fill="#AFB7C1"/>
<path id="Vector_2" d="M37.2478 67.2919C37.1078 67.4236 36.9978 67.6261 36.9978 67.7476C36.9978 67.8793 36.9278 67.9502 36.7978 67.9502C36.6478 67.9502 36.5978 68.021 36.5978 68.2033C36.5978 68.3856 36.6478 68.4565 36.7978 68.4565C36.9778 68.4565 36.9978 68.5375 37.0178 69.6919C37.0478 70.8565 37.0578 70.9375 37.2478 70.9375C37.4378 70.9375 37.4478 70.8565 37.4778 69.6919L37.5078 68.4565H37.8478C38.1578 68.4565 38.1978 68.4261 38.1978 68.2033C38.1978 67.9805 38.1578 67.9502 37.8478 67.9502C37.5678 67.9502 37.4978 67.9097 37.4978 67.7578C37.4978 67.5451 37.6878 67.4438 38.0578 67.4438C38.2278 67.4438 38.2978 67.3831 38.2978 67.2413C38.2978 66.9274 37.5678 66.9578 37.2478 67.2919Z" fill="#AFB7C1"/>
<path id="Vector_3" d="M40.1973 69.0214V70.9961L40.4273 70.9657C40.6373 70.9353 40.6473 70.8847 40.6973 69.8518C40.7473 68.7075 40.8173 68.5455 41.2673 68.4037C41.4373 68.3632 41.5573 68.4138 41.7473 68.5961C41.9873 68.8391 41.9973 68.91 41.9973 69.9227C41.9973 70.9151 42.0073 70.986 42.1973 70.986C42.3873 70.986 42.3973 70.9151 42.3973 69.7201C42.3973 68.4746 42.3973 68.4543 42.1273 68.2012C41.8973 67.9885 41.7673 67.948 41.4473 67.9784C41.2273 67.9986 40.9673 68.0493 40.8773 68.0898C40.7173 68.1607 40.6973 68.11 40.6973 67.6037C40.6973 67.067 40.6873 67.0366 40.4473 67.0366H40.1973V69.0214Z" fill="#AFB7C1"/>
<path id="Vector_4" d="M48.3205 67.2099C48.3405 67.3213 48.4605 67.4023 48.6205 67.4226L48.9005 67.4529L48.9205 69.1947L48.9505 70.9365L49.4105 70.9669C49.7705 70.9871 49.8905 70.9567 49.9405 70.8352C50.0305 70.5922 49.9305 70.4808 49.5905 70.4808H49.3005V68.7593V67.0378H48.7905C48.3605 67.0378 48.2905 67.0681 48.3205 67.2099Z" fill="#AFB7C1"/>
<path id="Vector_5" d="M50.7969 67.3407C50.7969 67.5939 50.8369 67.6445 51.0469 67.6445C51.2569 67.6445 51.2969 67.5939 51.2969 67.3407C51.2969 67.0876 51.2569 67.0369 51.0469 67.0369C50.8369 67.0369 50.7969 67.0876 50.7969 67.3407Z" fill="#AFB7C1"/>
<path id="Vector_6" d="M60.119 67.2414C59.999 67.363 59.899 67.5655 59.899 67.6971C59.899 67.8693 59.839 67.9503 59.679 67.9706C59.529 67.9908 59.439 68.082 59.419 68.2237C59.389 68.4161 59.429 68.4566 59.639 68.4566H59.899V69.7225C59.899 70.9174 59.909 70.9883 60.099 70.9883C60.289 70.9883 60.299 70.9174 60.299 69.7225V68.4566H60.709C61.069 68.4566 61.109 68.4364 61.079 68.2237C61.059 68.0414 60.979 67.9908 60.679 67.9706C60.259 67.9301 60.249 67.9199 60.399 67.6364C60.479 67.5047 60.609 67.444 60.849 67.444C61.129 67.444 61.199 67.4035 61.199 67.2414C61.199 67.0693 61.129 67.0389 60.769 67.0389C60.469 67.0389 60.269 67.0997 60.119 67.2414Z" fill="#AFB7C1"/>
<path id="Vector_7" d="M78.77 68.9814C78.79 70.8649 78.8 70.9358 78.99 70.9662C79.19 70.9965 79.2 70.956 79.2 70.0345C79.2 68.9206 79.28 68.6573 79.65 68.4548C79.88 68.3333 79.95 68.3333 80.18 68.4649C80.44 68.6067 80.45 68.6472 80.5 69.7712C80.55 70.8548 80.56 70.9358 80.75 70.9358C80.94 70.9358 80.95 70.8548 80.98 69.8725C81.01 68.7484 80.92 68.3434 80.56 68.1003C80.29 67.8978 79.7 67.9079 79.42 68.1105L79.2 68.2624V67.6548C79.2 67.0776 79.18 67.0371 78.98 67.0371H78.75L78.77 68.9814Z" fill="#AFB7C1"/>
<path id="Vector_8" d="M90.4965 67.6161C90.4965 68.0617 90.4665 68.163 90.3765 68.0718C90.3065 68.0009 90.0665 67.9503 89.8365 67.9503C89.0065 67.9503 88.5865 68.6997 88.7465 69.8946C88.8465 70.6237 89.2065 70.9883 89.8365 70.9883C90.0765 70.9883 90.3165 70.9376 90.3465 70.887C90.3965 70.806 90.4565 70.8161 90.5565 70.8971C90.6265 70.9579 90.7665 70.9883 90.8465 70.9478C90.9765 70.9073 90.9965 70.5933 90.9965 68.963V67.0389H90.7465C90.5065 67.0389 90.4965 67.0693 90.4965 67.6161ZM90.3665 68.6389C90.4365 68.7402 90.4865 69.1047 90.4965 69.4895C90.4965 70.0465 90.4565 70.2187 90.2965 70.3807C90.0265 70.6541 89.7365 70.6339 89.4465 70.3301C89.2365 70.1275 89.1965 69.9857 89.1965 69.4693C89.1965 68.9427 89.2365 68.8111 89.4565 68.5984C89.7365 68.3047 90.1265 68.325 90.3665 68.6389Z" fill="#AFB7C1"/>
<path id="Vector_9" d="M93.6184 67.2693C93.4984 67.401 93.3984 67.6035 93.3984 67.7149C93.3984 67.8566 93.3184 67.9478 93.1484 67.9883C92.9884 68.0288 92.8984 68.1199 92.8984 68.2516C92.8984 68.4035 92.9684 68.4541 93.1484 68.4541H93.3984V69.7301C93.3984 70.9858 93.3984 70.9959 93.6284 70.9655C93.8384 70.9351 93.8484 70.8946 93.8784 69.6896L93.9084 68.4541H94.2584C94.5684 68.4541 94.6084 68.4237 94.5784 68.2212C94.5584 68.0491 94.4684 67.9883 94.2284 67.968C93.9884 67.9478 93.8984 67.887 93.8984 67.7453C93.8984 67.5427 94.0884 67.4415 94.4584 67.4415C94.6284 67.4415 94.6984 67.3807 94.6984 67.2389C94.6984 66.925 93.9084 66.9554 93.6184 67.2693Z" fill="#AFB7C1"/>
<path id="Vector_10" d="M102.998 67.3407C102.998 67.5736 103.038 67.6445 103.198 67.6445C103.358 67.6445 103.398 67.5736 103.398 67.3407C103.398 67.1078 103.358 67.0369 103.198 67.0369C103.038 67.0369 102.998 67.1078 102.998 67.3407Z" fill="#AFB7C1"/>
<path id="Vector_11" d="M104.166 67.0985C103.996 67.2707 104.106 67.4428 104.396 67.4428H104.696L104.716 69.1846L104.746 70.9365L105.206 70.9669C105.566 70.9871 105.686 70.9567 105.736 70.8352C105.826 70.6023 105.726 70.4808 105.446 70.4808H105.196L105.176 68.7795L105.146 67.0884L104.696 67.058C104.446 67.0378 104.206 67.058 104.166 67.0985Z" fill="#AFB7C1"/>
<path id="Vector_12" d="M106.598 67.3407C106.598 67.5939 106.638 67.6445 106.848 67.6445C107.058 67.6445 107.098 67.5939 107.098 67.3407C107.098 67.0876 107.058 67.0369 106.848 67.0369C106.638 67.0369 106.598 67.0876 106.598 67.3407Z" fill="#AFB7C1"/>
<path id="Vector_13" d="M76.7669 67.4142C76.7269 67.4446 76.6969 67.5763 76.6969 67.7079C76.6969 67.8396 76.6169 67.951 76.4969 67.9813C76.3769 68.0117 76.2969 68.1231 76.2969 68.2446C76.2969 68.3864 76.3569 68.4573 76.4969 68.4573C76.6869 68.4573 76.6969 68.5282 76.6969 69.4598C76.6969 70.7054 76.8069 70.8877 77.5769 70.9687C78.0869 71.0092 78.0969 71.0092 78.0969 70.7459C78.0969 70.513 78.0569 70.4826 77.7669 70.4826C77.2669 70.4826 77.1969 70.3408 77.1969 69.3484V68.4573H77.6569C78.0669 68.4573 78.1069 68.437 78.0769 68.2244C78.0569 68.0421 77.9769 67.9915 77.6269 67.9712C77.2569 67.9408 77.1969 67.9104 77.1969 67.6978C77.1969 67.5763 77.1269 67.4345 77.0369 67.4041C76.8469 67.3332 76.8469 67.3332 76.7669 67.4142Z" fill="#AFB7C1"/>
<path id="Vector_14" d="M16.1279 68.1518C15.9479 68.2632 15.7979 68.4252 15.7979 68.5062C15.7979 68.7492 16.0779 68.81 16.2879 68.6176C16.5179 68.4049 17.0279 68.3746 17.2479 68.5568C17.3279 68.6277 17.3979 68.7897 17.3979 68.9214C17.3979 69.1746 17.3379 69.1948 16.5579 69.3062C15.7579 69.4176 15.3979 70.2581 15.9279 70.7644C16.2079 71.0277 16.8479 71.0682 17.1679 70.8353C17.3679 70.6935 17.3979 70.6935 17.4779 70.8454C17.5379 70.9568 17.6379 70.9973 17.7479 70.9568C17.8979 70.8961 17.9079 70.7442 17.8779 69.6606C17.8479 68.4657 17.8379 68.4353 17.5679 68.1923C17.2079 67.8885 16.5879 67.8682 16.1279 68.1518ZM17.3079 70.1467C17.0679 70.6227 16.2779 70.7037 16.1479 70.2682C16.0479 69.9644 16.2579 69.8024 16.8479 69.7011C17.2779 69.6201 17.3479 69.6404 17.3779 69.7923C17.3979 69.8834 17.3679 70.0454 17.3079 70.1467Z" fill="#AFB7C1"/>
<path id="Vector_15" d="M20.068 68.02C20.028 68.0503 19.998 68.9415 19.998 69.9946V71.8984H20.248C20.488 71.8984 20.498 71.8681 20.498 71.3212C20.498 70.8757 20.528 70.7744 20.618 70.8655C20.788 71.0377 21.518 71.0174 21.788 70.825C22.328 70.4402 22.488 69.0832 22.068 68.4453C21.798 68.0301 21.248 67.8478 20.788 68.02C20.618 68.0908 20.478 68.0908 20.438 68.0402C20.378 67.9288 20.158 67.9187 20.068 68.02ZM21.548 68.6073C21.758 68.8098 21.798 68.9516 21.798 69.4681C21.798 69.9845 21.758 70.1263 21.548 70.3288C21.278 70.6124 21.178 70.6326 20.868 70.4706C20.538 70.2883 20.498 70.187 20.498 69.4478C20.498 68.8402 20.528 68.7491 20.758 68.5668C21.098 68.2934 21.258 68.3035 21.548 68.6073Z" fill="#AFB7C1"/>
<path id="Vector_16" d="M25.2001 68.0204C25.0101 68.0913 24.6001 68.466 24.6001 68.5672C24.6001 68.7698 25.0101 68.7596 25.2901 68.547C25.5501 68.3546 25.6201 68.3444 25.8901 68.4558C26.2601 68.6077 26.3901 68.9419 26.1601 69.1141C26.0701 69.185 25.7701 69.2761 25.4901 69.3065C24.5801 69.428 24.1901 70.1774 24.7501 70.7343C25.0301 71.028 25.7201 71.0786 26.0701 70.8356C26.2601 70.7039 26.2901 70.7039 26.3401 70.8356C26.4301 71.0786 26.6901 71.0077 26.7601 70.7242C26.8601 70.309 26.7401 68.628 26.6001 68.385C26.3701 68.0103 25.7001 67.8381 25.2001 68.0204ZM26.1201 70.1672C25.7201 70.7141 25.0801 70.7039 25.0201 70.1369C24.9801 69.8331 25.0601 69.7926 25.7601 69.6913C26.3301 69.6001 26.4401 69.7419 26.1201 70.1672Z" fill="#AFB7C1"/>
<path id="Vector_17" d="M27.7384 68.2946C27.4084 68.6288 27.3984 68.6592 27.3984 69.4693C27.3984 70.2794 27.4084 70.3098 27.7384 70.644C28.0184 70.9275 28.1484 70.9883 28.5184 70.9883C28.9984 70.9782 29.2984 70.806 29.2984 70.5326C29.2984 70.3503 29.2784 70.3503 28.5484 70.5427C28.4284 70.5731 28.2584 70.5123 28.1284 70.3807C27.9284 70.1984 27.8984 70.0668 27.8984 69.4895C27.8984 68.7503 27.9384 68.649 28.2784 68.4668C28.4584 68.3655 28.5584 68.3756 28.7784 68.487C29.1084 68.649 29.2984 68.6085 29.2984 68.3655C29.2984 68.1427 28.8984 67.9503 28.4384 67.9503C28.1584 67.9503 27.9984 68.0313 27.7384 68.2946Z" fill="#AFB7C1"/>
<path id="Vector_18" d="M30.1369 68.3147C29.8169 68.6489 29.7969 68.7198 29.7969 69.3881C29.7969 70.5324 30.1569 70.9274 31.1869 70.9375C31.6769 70.9375 31.7469 70.9172 31.7469 70.735C31.7469 70.5628 31.6669 70.5223 31.1869 70.4818C30.5569 70.421 30.2969 70.259 30.2969 69.9147C30.2969 69.6818 30.3269 69.6717 31.0769 69.6717C32.1069 69.6717 32.2169 69.5603 31.9969 68.74C31.8669 68.2843 31.3869 67.9502 30.8469 67.9502C30.5469 67.9502 30.4069 68.021 30.1369 68.3147ZM31.4469 68.6894C31.7269 69.0945 31.6469 69.1653 30.9469 69.1653C30.3769 69.1653 30.2969 69.1451 30.2969 68.9831C30.2969 68.7805 30.5469 68.5172 30.7969 68.4362C31.0369 68.3653 31.2869 68.4666 31.4469 68.6894Z" fill="#AFB7C1"/>
<path id="Vector_19" d="M34.4296 68.1513C33.7296 68.5766 33.7096 70.3285 34.4096 70.8247C34.7996 71.0981 35.4396 71.0373 35.8196 70.693C36.1196 70.4297 36.1496 70.3386 36.1796 69.6804C36.2296 68.8702 36.0996 68.4551 35.7196 68.1513C35.3996 67.888 34.8396 67.888 34.4296 68.1513ZM35.4396 68.5664C35.6696 68.7487 35.6996 68.8399 35.6996 69.4475C35.6896 70.1968 35.5796 70.4297 35.1696 70.531C34.9696 70.5816 34.8496 70.5411 34.6596 70.3386C34.4396 70.1259 34.3996 69.9943 34.3996 69.5183C34.3996 68.8702 34.5196 68.5867 34.8296 68.4551C35.1396 68.3335 35.1396 68.3335 35.4396 68.5664Z" fill="#AFB7C1"/>
<path id="Vector_20" d="M43.4196 68.2345C42.8396 68.7813 42.8996 70.2497 43.5196 70.7155C43.6996 70.8573 44.0096 70.9383 44.3996 70.9687C44.9896 71.0092 44.9996 71.0092 44.9996 70.7459C44.9996 70.4927 44.9796 70.4826 44.4596 70.4826C43.9896 70.4826 43.8896 70.4421 43.7096 70.2193C43.3396 69.7434 43.4196 69.6826 44.3796 69.6522L45.2496 69.6218V69.075C45.2396 68.5991 45.1996 68.4978 44.9196 68.2446C44.4696 67.8396 43.8496 67.8294 43.4196 68.2345ZM44.5396 68.5687C44.6796 68.6801 44.7996 68.8623 44.7996 68.9737C44.7996 69.1459 44.7296 69.1661 44.1496 69.1661C43.4096 69.1661 43.3196 69.0345 43.7496 68.6092C44.0396 68.3054 44.1996 68.2953 44.5396 68.5687Z" fill="#AFB7C1"/>
<path id="Vector_21" d="M46.0967 68.2128C45.8067 68.466 45.7967 68.4963 45.9467 68.6482C46.0667 68.7799 46.1367 68.7799 46.2767 68.6786C46.7967 68.3039 47.3167 68.3444 47.4467 68.7698C47.5367 69.0533 47.2867 69.266 46.8767 69.266C45.8967 69.266 45.3467 70.1369 45.9467 70.7343C46.2267 71.028 46.9167 71.0786 47.2667 70.8356C47.4567 70.7039 47.4867 70.7039 47.5367 70.8457C47.5667 70.9267 47.6667 70.9875 47.7567 70.9672C47.8867 70.9369 47.9167 70.7546 47.9067 69.752C47.9067 69.0837 47.8567 68.4761 47.7967 68.3546C47.5467 67.8786 46.5867 67.7976 46.0967 68.2128ZM47.3467 70.1369C47.1167 70.5014 46.7567 70.6432 46.4467 70.5014C46.1967 70.3799 46.1267 70.1369 46.2767 69.9039C46.3167 69.8331 46.5967 69.7419 46.8967 69.6913C47.5167 69.6001 47.6267 69.7115 47.3467 70.1369Z" fill="#AFB7C1"/>
<path id="Vector_22" d="M50.2673 68.0207C50.2273 68.0511 50.1973 68.1726 50.1973 68.2739C50.1973 68.4055 50.2773 68.4561 50.4973 68.4561H50.7973V69.6713C50.7973 70.8663 50.7973 70.8865 51.0373 70.9473C51.4773 71.0587 51.8473 70.9574 51.8773 70.7042C51.9073 70.5118 51.8673 70.4814 51.6073 70.4814H51.2973V69.3371C51.2973 68.5776 51.2573 68.1523 51.1773 68.0713C51.0473 67.9397 50.3773 67.8992 50.2673 68.0207Z" fill="#AFB7C1"/>
<path id="Vector_23" d="M52.4684 68.0186C52.4284 68.049 52.3984 68.7376 52.3984 69.5376C52.3984 70.9959 52.3984 70.9959 52.6284 70.9655C52.8384 70.9351 52.8484 70.8845 52.8984 69.8414C52.9484 68.8389 52.9684 68.7174 53.1884 68.5452C53.4684 68.3123 53.6884 68.3022 53.9584 68.4946C54.1184 68.6262 54.1484 68.7883 54.1784 69.8212C54.2084 70.8541 54.2384 70.9959 54.3784 70.9655C54.5284 70.9351 54.5484 70.7528 54.5784 69.6895C54.6084 68.4845 54.5984 68.444 54.3584 68.2009C54.0884 67.9275 53.5484 67.8566 53.1784 68.0591C53.0384 68.1402 52.9484 68.1402 52.8684 68.0591C52.7484 67.9376 52.5684 67.9174 52.4684 68.0186Z" fill="#AFB7C1"/>
<path id="Vector_24" d="M55.5873 68.2429C55.2573 68.5872 55.1873 69.1644 55.4473 69.5391C55.5773 69.7214 55.5773 69.7619 55.4473 69.8733C55.2773 70.015 55.2473 70.4404 55.3973 70.5315C55.4673 70.572 55.4673 70.653 55.3973 70.7847C55.2273 71.0986 55.2773 71.5442 55.5073 71.7568C55.6673 71.8986 55.8673 71.9492 56.3473 71.9492C57.1473 71.9492 57.5273 71.7062 57.5773 71.1695C57.6173 70.6733 57.3773 70.5011 56.5373 70.41C55.9373 70.3391 55.8473 70.2986 55.8473 70.1264C55.8473 69.9543 55.9073 69.934 56.2473 69.9543C57.0073 70.0049 57.4873 69.4986 57.3773 68.7593C57.3373 68.4961 57.3673 68.4555 57.5673 68.4555C57.7473 68.4555 57.7973 68.4049 57.7973 68.2024C57.7973 67.9492 57.7973 67.9492 56.8373 67.9492C55.9173 67.9492 55.8673 67.9593 55.5873 68.2429ZM56.7173 68.5264C56.9973 68.8606 57.0073 69.0631 56.7473 69.3264C56.4473 69.6302 56.2473 69.6302 55.9473 69.3264C55.7373 69.1138 55.7173 69.0429 55.8073 68.7695C55.9573 68.3543 56.4473 68.2226 56.7173 68.5264ZM57.0673 71.0074C57.4173 71.291 56.5873 71.7062 56.0673 71.5036C55.7473 71.3821 55.6273 71.1391 55.7873 70.9467C55.9073 70.7948 56.8573 70.8454 57.0673 71.0074Z" fill="#AFB7C1"/>
<path id="Vector_25" d="M61.9761 68.1519C61.5961 68.4557 61.4661 68.8709 61.5161 69.6811C61.5461 70.3393 61.5761 70.4304 61.8761 70.6937C62.2361 71.0178 62.7561 71.0785 63.1961 70.8557C63.9361 70.4811 64.0061 68.6684 63.3061 68.1519C62.9261 67.8887 62.3061 67.8887 61.9761 68.1519ZM63.0461 68.6076C63.2561 68.8102 63.2961 68.9519 63.2961 69.4684C63.2961 69.995 63.2561 70.1266 63.0361 70.3393C62.8461 70.5418 62.7261 70.5823 62.5261 70.5317C62.1161 70.4304 62.0061 70.1975 61.9961 69.4583C61.9961 68.7798 62.0961 68.5773 62.4961 68.4254C62.7461 68.3342 62.7961 68.3444 63.0461 68.6076Z" fill="#AFB7C1"/>
<path id="Vector_26" d="M64.2673 68.0212C64.2273 68.0516 64.1973 68.1731 64.1973 68.2744C64.1973 68.406 64.2673 68.4566 64.4473 68.4566H64.6973V69.4693V70.482H64.4473C64.2473 70.482 64.1973 70.5326 64.1973 70.7351C64.1973 70.9883 64.2073 70.9883 65.0073 70.9883C65.7873 70.9883 65.8073 70.9782 65.7773 70.7554C65.7573 70.5832 65.6673 70.5225 65.4273 70.5022L65.0973 70.4718V69.7326C65.0973 69.0035 65.1073 68.9832 65.4373 68.7199C65.6273 68.5782 65.8773 68.4566 65.9873 68.4566C66.1273 68.4566 66.1973 68.3959 66.1973 68.2541C66.1973 67.9402 65.9073 67.8895 65.4873 68.1326C65.1273 68.3452 65.1173 68.3452 65.0673 68.1528C65.0273 68.0009 64.9273 67.9503 64.6773 67.9503C64.4873 67.9503 64.2973 67.9807 64.2673 68.0212Z" fill="#AFB7C1"/>
<path id="Vector_27" d="M67.7569 68.0294C67.7269 68.0801 67.9269 68.7484 68.2069 69.5282L68.7069 70.9256L68.5469 71.3813C68.3569 71.9383 68.3569 71.8978 68.6269 71.8978C68.8369 71.8978 68.9169 71.7155 69.5269 70.0041C69.9769 68.7282 70.1569 68.0699 70.0969 68.0092C69.8869 67.7965 69.6469 68.1408 69.3169 69.1636L68.9669 70.2269L68.7269 69.5687C68.2769 68.2826 68.1369 67.999 67.9769 67.9687C67.8869 67.9484 67.7869 67.9788 67.7569 68.0294Z" fill="#AFB7C1"/>
<path id="Vector_28" d="M71.0865 68.0905C70.3365 68.5259 70.2865 70.3082 71.0065 70.8247C71.3965 71.0981 72.0365 71.0373 72.4165 70.693C72.7465 70.3994 72.7465 70.3892 72.7465 69.4778C72.7465 68.6272 72.7265 68.5462 72.4865 68.293C72.1565 67.969 71.4765 67.8677 71.0865 68.0905ZM72.0365 68.5664C72.2665 68.7487 72.2965 68.8399 72.2965 69.4475C72.2965 70.1867 72.2565 70.288 71.9265 70.4702C71.6165 70.6323 71.5165 70.612 71.2465 70.3285C71.0365 70.1259 70.9965 69.9842 70.9965 69.4677C70.9965 68.9513 71.0365 68.8095 71.2465 68.607C71.5365 68.3032 71.6965 68.293 72.0365 68.5664Z" fill="#AFB7C1"/>
<path id="Vector_29" d="M73.5363 68.0921C73.5063 68.1731 73.4963 68.7706 73.5163 69.4187C73.5463 70.5326 73.5563 70.6035 73.7963 70.7857C74.0663 70.9984 74.6963 71.049 74.9963 70.887C75.1263 70.8161 75.2063 70.8161 75.2463 70.887C75.2763 70.9376 75.3963 70.9883 75.5063 70.9883C75.6963 70.9883 75.6963 70.9174 75.6763 69.4895C75.6463 68.082 75.6363 68.0009 75.4463 68.0009C75.2563 68.0009 75.2463 68.082 75.1963 69.1452C75.1563 70.1376 75.1163 70.3199 74.9563 70.4414C74.6963 70.6339 74.4663 70.6237 74.2063 70.4111C74.0263 70.249 73.9963 70.1073 73.9763 69.1149C73.9463 68.1528 73.9263 68.0009 73.7663 67.9706C73.6763 67.9503 73.5663 68.0009 73.5363 68.0921Z" fill="#AFB7C1"/>
<path id="Vector_30" d="M83.3884 68.1021C83.0784 68.2743 82.9484 68.5477 83.0984 68.6996C83.1684 68.7705 83.3284 68.7299 83.5984 68.5679C83.9584 68.3654 84.0484 68.3553 84.3084 68.4565C84.5284 68.5578 84.5984 68.6489 84.5984 68.8616C84.5984 69.1046 84.5484 69.1553 84.2984 69.2059C84.1384 69.2363 83.8684 69.297 83.6984 69.3274C83.1884 69.4287 82.8984 69.7325 82.8984 70.178C82.8984 70.4818 82.9584 70.6135 83.1584 70.7755C83.4784 71.0287 84.1584 71.0591 84.4784 70.8262C84.6784 70.6844 84.6984 70.6844 84.6984 70.8363C84.6984 70.9375 84.7684 70.9882 84.8784 70.9679C85.0284 70.9375 85.0484 70.7856 85.0784 69.7426L85.1084 68.5477L84.8084 68.254C84.5684 68.011 84.4284 67.9502 84.0784 67.9502C83.8384 67.9603 83.5284 68.0211 83.3884 68.1021ZM84.5384 70.0464C84.2384 70.654 83.6684 70.7553 83.3584 70.2489C83.1984 69.9856 83.4884 69.7629 84.1084 69.6818C84.4084 69.6413 84.6684 69.6211 84.6884 69.6312C84.7084 69.6515 84.6384 69.8337 84.5384 70.0464Z" fill="#AFB7C1"/>
<path id="Vector_31" d="M85.8984 69.477C85.8984 70.996 85.8984 70.996 86.1284 70.9656C86.3384 70.9352 86.3484 70.8846 86.3784 69.9226C86.3884 69.3656 86.4484 68.8086 86.5084 68.6871C86.6584 68.3934 87.0584 68.3023 87.3584 68.5048C87.5784 68.6466 87.5984 68.7276 87.6184 69.801C87.6484 70.8542 87.6584 70.9352 87.8484 70.9352C88.0384 70.9352 88.0484 70.8542 88.0784 69.7605C88.1084 68.6162 88.0984 68.5656 87.8384 68.2618C87.6284 68.0086 87.5084 67.9479 87.1784 67.9479C86.9684 67.9479 86.6884 67.9985 86.5684 68.0593C86.4084 68.1504 86.3484 68.1504 86.3184 68.0593C86.2984 67.9985 86.1984 67.9479 86.0884 67.9479C85.9084 67.9479 85.8984 68.039 85.8984 69.477Z" fill="#AFB7C1"/>
<path id="Vector_32" d="M95.4866 68.1014C95.1766 68.2735 95.0466 68.547 95.1966 68.6989C95.2666 68.7697 95.3566 68.7697 95.4766 68.6786C96.0466 68.2634 96.6166 68.3647 96.6766 68.8913C96.6966 69.0432 96.6966 69.1647 96.6766 69.1647C96.2966 69.1647 95.3966 69.4381 95.2266 69.6001C94.9166 69.8837 94.9166 70.471 95.2266 70.7647C95.5066 71.0381 96.1466 71.0685 96.4766 70.8254C96.6966 70.6735 96.7166 70.6735 96.8366 70.8457C97.0966 71.2001 97.1966 70.8963 97.1966 69.7115C97.1966 68.5571 97.1966 68.5368 96.9066 68.2432C96.6666 68.0102 96.5266 67.9495 96.1766 67.9495C95.9366 67.9596 95.6266 68.0204 95.4866 68.1014ZM96.6966 69.9748C96.4566 70.5621 95.5966 70.7647 95.4466 70.2685C95.3466 69.9546 95.5966 69.7621 96.2066 69.6811C96.5066 69.6406 96.7666 69.6204 96.7866 69.6406C96.8066 69.6508 96.7666 69.8027 96.6966 69.9748Z" fill="#AFB7C1"/>
<path id="Vector_33" d="M98.068 68.0212C98.028 68.0516 97.998 68.7402 97.998 69.5402C97.998 70.8971 98.008 70.9883 98.188 70.9883C98.448 70.9883 98.508 70.7655 98.498 69.8744C98.478 68.6288 98.468 68.6693 98.848 68.487C99.188 68.325 99.208 68.325 99.428 68.5376C99.618 68.7402 99.658 68.9022 99.698 69.8541C99.748 70.8566 99.768 70.9376 99.948 70.9376C100.128 70.9376 100.148 70.8668 100.168 69.9756C100.208 68.7503 100.238 68.6187 100.548 68.4769C100.898 68.3149 100.968 68.325 101.198 68.5579C101.378 68.7402 101.398 68.8921 101.398 69.8845C101.398 70.9883 101.398 70.9984 101.628 70.968C101.838 70.9376 101.848 70.887 101.878 69.8541C101.898 69.0136 101.868 68.6895 101.748 68.4566C101.488 67.9402 100.738 67.7883 100.278 68.1427C100.048 68.3351 100.038 68.3351 99.798 68.1427C99.518 67.9301 98.988 67.8895 98.678 68.0617C98.538 68.1427 98.448 68.1427 98.368 68.0617C98.238 67.9301 98.158 67.9199 98.068 68.0212Z" fill="#AFB7C1"/>
<path id="Vector_34" d="M102.398 68.1916C102.398 68.4144 102.448 68.4549 102.698 68.4549H102.988L103.018 69.6904L103.048 70.9359L103.528 70.9663C103.978 70.9967 103.998 70.9866 103.998 70.7435C103.998 70.5207 103.948 70.4802 103.698 70.4802H103.408L103.378 69.2347L103.348 67.9992L102.878 67.9688C102.418 67.9385 102.398 67.9486 102.398 68.1916Z" fill="#AFB7C1"/>
<path id="Vector_35" d="M106.068 68.0207C106.028 68.0511 105.998 68.1726 105.998 68.2739C105.998 68.4055 106.078 68.4561 106.298 68.4561H106.598V69.6713C106.598 70.8663 106.598 70.8865 106.838 70.9473C107.278 71.0587 107.648 70.9574 107.678 70.7042C107.708 70.5118 107.668 70.4814 107.408 70.4814H107.098V69.2764C107.098 68.2739 107.068 68.0612 106.938 68.0106C106.728 67.9295 106.148 67.9295 106.068 68.0207Z" fill="#AFB7C1"/>
<path id="Vector_36" d="M108.479 68.1814C108.329 68.3029 108.159 68.5358 108.099 68.6877C107.959 69.0928 107.979 69.9333 108.139 70.2573C108.409 70.7738 108.649 70.9156 109.319 70.9257C109.899 70.9358 109.949 70.9156 109.979 70.7029C110.009 70.5004 109.979 70.4801 109.469 70.4801C109.039 70.4801 108.889 70.4396 108.719 70.2472C108.289 69.7814 108.409 69.6801 109.379 69.6497L110.249 69.6193L110.279 69.275C110.319 68.8497 110.139 68.4042 109.819 68.151C109.469 67.8674 108.829 67.8877 108.479 68.1814ZM109.429 68.4649C109.699 68.6067 109.799 68.7485 109.799 68.9814C109.799 69.1333 109.699 69.1637 109.149 69.1637C108.759 69.1637 108.499 69.1231 108.499 69.0523C108.499 68.8396 108.719 68.5459 108.929 68.4548C109.219 68.3434 109.179 68.3333 109.429 68.4649Z" fill="#AFB7C1"/>
<path id="Vector_37" d="M111.057 68.163C110.857 68.325 110.797 68.4566 110.797 68.7503C110.797 69.1857 111.037 69.4592 111.597 69.6718C112.067 69.8541 112.197 69.9655 112.197 70.1883C112.197 70.4921 111.837 70.6237 111.377 70.4921C110.977 70.3706 110.797 70.4111 110.797 70.6237C110.797 70.806 111.237 70.9883 111.707 70.9883C112.017 70.9883 112.177 70.9174 112.407 70.6946C112.937 70.1478 112.687 69.5604 111.777 69.2263C111.357 69.0744 111.297 69.0136 111.297 68.7604C111.297 68.3959 111.557 68.2946 112.057 68.4566C112.357 68.5579 112.437 68.5579 112.507 68.4465C112.637 68.2339 112.617 68.1933 112.347 68.0718C111.937 67.8794 111.357 67.9199 111.057 68.163Z" fill="#AFB7C1"/>
</g>
<g id="Silver_2">
<path id="Vector_38" d="M68.7274 4.47526L68.3974 4.58665V5.45754C68.3974 5.93349 68.3474 6.50057 68.2874 6.71323C68.1874 7.08792 68.1974 7.1183 68.5974 7.55374C69.0774 8.08032 69.3674 8.69804 69.4574 9.35627C69.5074 9.7107 69.5774 9.83222 69.7374 9.88285C69.8474 9.91323 70.0874 10.055 70.2674 10.1866C70.4374 10.3183 70.6074 10.4297 70.6374 10.4297C70.7674 10.4297 71.4074 9.32589 71.6074 8.7588C71.8574 8.03981 71.9074 6.74361 71.7074 6.12589C71.3274 5.01197 70.6374 4.42462 69.6574 4.38412C69.3274 4.37399 68.8974 4.4145 68.7274 4.47526Z" fill="#7DB4F7"/>
<path id="Vector_39" d="M55.1165 12.2243C55.1565 12.4876 55.1165 12.5585 54.9065 12.6598L54.6465 12.7813L54.9765 12.9129C55.1865 13.0041 55.2965 13.1256 55.2965 13.2674C55.2965 13.5307 55.4665 13.5307 55.5465 13.2674C55.5865 13.1256 55.6965 13.0648 55.9065 13.0648C56.2465 13.0648 56.2765 12.9636 55.9965 12.7813C55.8065 12.6598 55.8065 12.6395 55.9465 12.356C56.1165 12.0218 56.0565 11.9813 55.7565 12.2041C55.5765 12.3357 55.5365 12.3357 55.3165 12.1231L55.0665 11.9003L55.1165 12.2243Z" fill="#7DB4F7"/>
<path id="Vector_40" d="M73.2393 13.0118C73.2793 13.2751 73.3293 13.5485 73.3593 13.6092C73.3793 13.67 73.1693 13.8523 72.8893 14.0042C72.6093 14.1662 72.3993 14.308 72.4193 14.3282C72.4393 14.3586 72.7093 14.4092 73.0093 14.4497L73.5493 14.5308L73.6393 15.1181C73.6893 15.432 73.7593 15.6953 73.7993 15.6953C73.8293 15.6953 73.9593 15.4523 74.0793 15.1586L74.2993 14.6118L74.8693 14.6928C75.1893 14.7333 75.4593 14.7535 75.4793 14.7434C75.4893 14.7232 75.3193 14.5308 75.0993 14.308L74.6893 13.913L74.8893 13.427C75.0093 13.1637 75.0993 12.9004 75.0993 12.8497C75.0993 12.789 74.8993 12.87 74.6493 13.0118C74.2393 13.2649 73.7993 13.2953 73.7993 13.0725C73.7993 13.032 73.6593 12.8902 73.4893 12.7687L73.1693 12.5257L73.2393 13.0118Z" fill="#7DB4F7"/>
<path id="Vector_41" d="M52.9472 15.6853C53.0072 15.9486 52.9772 16.0093 52.7572 16.1106C52.4672 16.2524 52.5072 16.4043 52.8372 16.4043C53.0172 16.4043 53.0872 16.4752 53.1372 16.7283L53.2072 17.0625L53.3572 16.779C53.4672 16.5663 53.5772 16.5055 53.8172 16.5055H54.1372L53.9172 16.303C53.7472 16.1309 53.7172 16.0498 53.7972 15.8979C53.9472 15.6144 53.9172 15.5638 53.6372 15.6347C53.4672 15.6853 53.2872 15.6448 53.1272 15.5435L52.8772 15.3714L52.9472 15.6853Z" fill="#7DB4F7"/>
<path id="Vector_42" d="M71.5777 17.3868C71.4377 17.5286 71.3577 17.5387 71.1477 17.4374C70.8777 17.3058 70.8277 17.3969 70.9977 17.721C71.0777 17.8729 71.0577 17.9336 70.8977 18.0248C70.6077 18.1767 70.6477 18.3589 70.9577 18.2982C71.1577 18.2678 71.2377 18.3083 71.3177 18.4906C71.4577 18.7843 71.5977 18.8045 71.5977 18.521C71.5977 18.3792 71.6977 18.2779 71.9077 18.2071L72.2277 18.0957L71.9977 17.9235C71.8277 17.7919 71.7777 17.6805 71.8177 17.4779C71.8777 17.1741 71.8077 17.1438 71.5777 17.3868Z" fill="#7DB4F7"/>
<path id="Vector_43" d="M56.338 17.8931C56.358 17.9944 56.408 18.2577 56.448 18.4906L56.508 18.8957L56.008 19.1387C55.728 19.2703 55.498 19.4121 55.498 19.4526C55.498 19.4931 55.768 19.5539 56.088 19.5944L56.678 19.6653L56.748 20.1412C56.848 20.8906 56.938 20.921 57.198 20.3336C57.328 20.04 57.448 19.7868 57.458 19.7665C57.468 19.7564 57.728 19.7767 58.038 19.8273C58.348 19.8779 58.598 19.8881 58.598 19.8577C58.598 19.8172 58.418 19.6146 58.208 19.402L57.808 19.0071L58.058 18.5109C58.198 18.2273 58.288 17.9843 58.258 17.9539C58.238 17.9235 57.988 18.0349 57.708 18.1868L57.208 18.4805L56.818 18.0957C56.408 17.6805 56.258 17.6298 56.338 17.8931Z" fill="#7DB4F7"/>
<path id="Vector_44" d="M70.4376 21.4792L70.1276 21.7931L69.6976 21.5703C69.3076 21.3678 69.2776 21.3678 69.3476 21.5399C69.6476 22.2893 69.6476 22.2893 69.3076 22.5526C68.8876 22.8868 68.9176 22.9678 69.4376 22.9172C69.8776 22.8665 69.8876 22.8665 70.1076 23.302C70.2976 23.6969 70.3376 23.7273 70.4076 23.545C70.4476 23.4336 70.4876 23.2412 70.4876 23.1197C70.4976 22.8463 70.5776 22.7956 71.1176 22.7045L71.5476 22.6235L71.1276 22.3906L70.7076 22.1475L70.7676 21.6615C70.7976 21.388 70.8076 21.1653 70.7876 21.1653C70.7576 21.1653 70.6076 21.307 70.4376 21.4792Z" fill="#7DB4F7"/>
<path id="Vector_45" d="M-0.00195312 55.8987V56.2025H0.648047H1.29805V58.4304V60.6582H1.58805C1.75805 60.6582 1.89805 60.5974 1.93805 60.4962C1.96805 60.405 1.99805 59.4126 1.99805 58.2785V56.2126L2.62805 56.1823C3.21805 56.1519 3.24805 56.1417 3.27805 55.8683L3.30805 55.5949H1.65805H-0.00195312V55.8987Z" fill="#7DB4F7"/>
<path id="Vector_46" d="M6.16865 57.9955C5.73865 59.3221 5.38865 60.4664 5.39865 60.5373C5.39865 60.6284 5.50865 60.6588 5.71865 60.6385C6.01865 60.6082 6.04865 60.5676 6.23865 59.9702L6.43865 59.3322L7.33865 59.3626L8.22865 59.393L8.44865 60.0006C8.63865 60.5575 8.67865 60.6082 8.97865 60.6385C9.19865 60.6588 9.29865 60.6284 9.29865 60.5373C9.29865 60.4664 8.94865 59.3322 8.51865 58.0259L7.72865 55.6461L7.33865 55.6157L6.93865 55.5854L6.16865 57.9955ZM7.94865 58.4411C8.00865 58.6132 7.95865 58.6335 7.35865 58.6335C6.99865 58.6335 6.69865 58.6031 6.69865 58.5626C6.69865 58.512 6.83865 58.0461 7.01865 57.5195L7.32865 56.5575L7.60865 57.398C7.76865 57.8639 7.91865 58.3297 7.94865 58.4411Z" fill="#7DB4F7"/>
<path id="Vector_47" d="M12.598 55.7164C12.598 55.7873 12.458 56.8708 12.298 58.1265C12.138 59.3822 11.998 60.4657 11.998 60.5265C11.998 60.6075 12.128 60.6581 12.298 60.6581C12.468 60.6581 12.628 60.5974 12.648 60.5265C12.678 60.4657 12.788 59.6354 12.898 58.6835C13.008 57.7417 13.118 56.9619 13.128 56.9417C13.148 56.9316 13.418 57.7012 13.748 58.6632C14.068 59.6151 14.368 60.486 14.418 60.5771C14.518 60.7898 14.928 60.8202 15.068 60.6278C15.128 60.567 15.428 59.7569 15.748 58.8354C16.058 57.9138 16.348 57.1341 16.388 57.0835C16.428 57.043 16.538 57.7113 16.638 58.5518C16.878 60.729 16.858 60.6581 17.198 60.6581C17.358 60.6581 17.508 60.6278 17.528 60.5771C17.548 60.5366 17.488 59.848 17.378 59.0379C17.278 58.2278 17.138 57.1341 17.068 56.6075L16.948 55.6455L16.548 55.6151L16.148 55.5847L15.558 57.3366C15.228 58.2986 14.928 59.1999 14.868 59.3417C14.788 59.5645 14.708 59.3923 14.238 58.0252C13.318 55.3619 13.438 55.5949 12.988 55.5949C12.748 55.5949 12.598 55.6455 12.598 55.7164Z" fill="#7DB4F7"/>
<path id="Vector_48" d="M20.6577 55.8177C20.5777 56.1215 20.5777 60.2936 20.6577 60.4962C20.6977 60.5974 20.8377 60.6582 21.0077 60.6582H21.2977V59.6962V58.7342H21.9277C23.1177 58.7342 23.7377 58.1063 23.6677 56.9924C23.6477 56.5468 23.5777 56.3443 23.3877 56.1417C22.9677 55.6861 22.6777 55.5949 21.6677 55.5949C20.7677 55.5949 20.7177 55.605 20.6577 55.8177ZM22.6877 56.4658C23.0177 56.7493 23.1077 57.2253 22.8877 57.6405C22.7477 57.9038 22.2077 58.1266 21.6977 58.1266H21.2977V57.1645V56.2025H21.8377C22.2777 56.2025 22.4377 56.2531 22.6877 56.4658Z" fill="#7DB4F7"/>
<path id="Vector_49" d="M26.768 57.9955C26.338 59.3221 25.998 60.4664 25.998 60.5373C25.998 60.6284 26.108 60.6588 26.318 60.6385C26.618 60.6082 26.648 60.5676 26.838 59.9702L27.038 59.3423H27.948H28.858L29.058 59.9702C29.238 60.5676 29.268 60.6082 29.578 60.6385C29.788 60.6588 29.898 60.6284 29.898 60.5373C29.898 60.4664 29.548 59.3322 29.118 58.0259L28.348 55.6461L27.948 55.6157L27.538 55.5854L26.768 57.9955ZM28.538 58.4006C28.608 58.6233 28.588 58.6335 27.958 58.6335C27.598 58.6335 27.298 58.6031 27.298 58.5626C27.298 58.5221 27.448 58.036 27.628 57.4892L27.948 56.4866L28.208 57.3271C28.348 57.793 28.498 58.279 28.538 58.4006Z" fill="#7DB4F7"/>
<path id="Vector_50" d="M36.7988 58.0658C36.7988 60.2228 36.8188 60.5468 36.9588 60.5974C37.0488 60.6278 37.4788 60.6582 37.9288 60.6582C38.9888 60.6582 39.4988 60.4253 39.7888 59.8076C39.9088 59.5747 39.9988 59.281 39.9988 59.1595C39.9988 58.805 39.7488 58.2785 39.4688 58.0658C39.2288 57.8633 39.2288 57.8633 39.4088 57.6304C39.6488 57.3367 39.6688 56.4455 39.4388 56.1215C39.1588 55.7164 38.7788 55.5949 37.7488 55.5949H36.7988V58.0658ZM38.7888 56.4658C39.0588 56.8101 39.0488 57.043 38.7688 57.3772C38.5788 57.6 38.4288 57.6607 37.9688 57.7012L37.3988 57.7417V56.9721V56.2025H37.9888C38.5088 56.2025 38.6088 56.2329 38.7888 56.4658ZM39.0488 58.5924C39.6888 59.2911 39.0788 60.0304 37.8788 60.0405L37.3988 60.0506V59.1898V58.3291H38.0988C38.7388 58.3291 38.8288 58.3595 39.0488 58.5924Z" fill="#7DB4F7"/>
<path id="Vector_51" d="M44.1004 55.6152C44.1004 55.6354 43.7404 56.7392 43.3004 58.0658C42.8704 59.4025 42.5304 60.5266 42.5604 60.5772C42.5904 60.6177 42.7404 60.6582 42.9004 60.6582C43.1604 60.6582 43.2004 60.6076 43.3704 60.0202L43.5604 59.3924L44.4704 59.362L45.3804 59.3316L45.6004 60C45.8004 60.6076 45.8404 60.6582 46.1004 60.6582C46.2604 60.6582 46.4004 60.5974 46.4304 60.5266C46.4504 60.4658 46.1104 59.3215 45.6704 57.9949L44.8804 55.5949H44.4904C44.2804 55.5949 44.1004 55.605 44.1004 55.6152ZM44.8704 57.6709L45.1804 58.6329H44.5004H43.8104L43.9404 58.2481C44.0104 58.0455 44.1504 57.6101 44.2504 57.2861C44.3504 56.9721 44.4604 56.7088 44.4904 56.7088C44.5304 56.7088 44.7004 57.1443 44.8704 57.6709Z" fill="#7DB4F7"/>
<path id="Vector_52" d="M48.9599 55.6756C48.9399 55.7161 49.2399 56.273 49.6299 56.911L50.3499 58.0756L50.3999 59.3414L50.4499 60.6072L50.7799 60.6376L51.0999 60.668V59.4224V58.1667L51.8399 56.9616C52.2499 56.3034 52.5599 55.7161 52.5399 55.6756C52.5099 55.6351 52.3399 55.5946 52.1699 55.5946C51.8699 55.5946 51.8099 55.6654 51.3999 56.4148C51.1499 56.8604 50.8999 57.2654 50.8399 57.3262C50.7599 57.387 50.5599 57.1439 50.1899 56.5059C49.6899 55.6654 49.6299 55.5946 49.3299 55.5946C49.1599 55.5946 48.9899 55.6351 48.9599 55.6756Z" fill="#7DB4F7"/>
<path id="Vector_53" d="M59.4478 55.8173C59.4178 55.949 59.4078 57.073 59.4178 58.3287L59.4478 60.6072L59.7778 60.6376L60.0978 60.668V59.7059V58.7338H60.6778C61.7878 58.7338 62.4978 58.0958 62.4978 57.1135C62.4978 56.5667 62.2278 56.0806 61.7778 55.7971C61.5078 55.6351 61.2678 55.5946 60.4778 55.5946C59.5478 55.5946 59.4978 55.6047 59.4478 55.8173ZM61.5078 56.4958C61.8178 56.8097 61.8878 57.2553 61.6878 57.6401C61.5478 57.9034 61.0078 58.1262 60.4978 58.1262H60.0978V57.1642V56.2021H60.6578C61.1378 56.2021 61.2478 56.2427 61.5078 56.4958Z" fill="#7DB4F7"/>
<path id="Vector_54" d="M65.498 58.0658C65.498 60.2228 65.518 60.5468 65.658 60.5974C65.748 60.6278 66.308 60.6582 66.908 60.6582H68.008L67.978 60.324L67.948 60L67.028 59.9696L66.098 59.9392V57.7721V55.5949H65.798H65.498V58.0658Z" fill="#7DB4F7"/>
<path id="Vector_55" d="M71.5099 58.0455C71.0699 59.3924 70.7299 60.5266 70.7599 60.5772C70.7899 60.6177 70.9399 60.6582 71.0999 60.6582C71.3599 60.6582 71.3999 60.6076 71.5999 60L71.8199 59.3316L72.7299 59.362L73.6399 59.3924L73.8199 60.0202C73.9899 60.6177 74.0299 60.6582 74.2999 60.6582C74.4599 60.6582 74.6099 60.6177 74.6399 60.5671C74.6699 60.5266 74.3299 59.3823 73.8899 58.0354L73.0799 55.5949H72.6999H72.3099L71.5099 58.0455ZM73.0699 57.6709L73.3799 58.6329H72.6999H72.0199L72.3299 57.6709C72.4999 57.1443 72.6699 56.7088 72.6999 56.7088C72.7299 56.7088 72.8999 57.1443 73.0699 57.6709Z" fill="#7DB4F7"/>
<path id="Vector_56" d="M77.1973 55.7568C77.1973 55.8479 77.2773 56.0403 77.3873 56.1821C77.4873 56.334 77.7873 56.8201 78.0573 57.2657L78.5473 58.0758L78.5973 59.3416L78.6473 60.6074H78.9473H79.2473L79.2973 59.3416L79.3473 58.0758L80.0173 57.0024C80.9173 55.5745 80.9073 55.5948 80.4373 55.5948C80.0573 55.5948 80.0373 55.6251 79.6273 56.334C78.9073 57.5897 79.0073 57.5694 78.3973 56.5163C77.8873 55.6555 77.8373 55.5948 77.5273 55.5948C77.2873 55.5948 77.1973 55.6454 77.1973 55.7568Z" fill="#7DB4F7"/>
<path id="Vector_57" d="M87.2988 55.8983V56.2021H87.9488H88.5988L88.6188 58.3996L88.6488 60.6072L88.9788 60.6376L89.2988 60.668V58.4401V56.2123L89.9788 56.1819C90.6188 56.1515 90.6488 56.1414 90.6488 55.8983V55.6452L88.9788 55.6148L87.2988 55.5946V55.8983Z" fill="#7DB4F7"/>
<path id="Vector_58" d="M93.5977 58.1266V60.6582H93.8977H94.1977V59.443V58.2278H95.3477H96.4877L96.5177 59.4126L96.5477 60.6076H96.8477H97.1477L97.1777 58.0962L97.1977 55.5949H96.8477H96.4977V56.6076V57.6202H95.3477H94.1977V56.6076V55.5949H93.8977H93.5977V58.1266Z" fill="#7DB4F7"/>
<path id="Vector_59" d="M100.566 55.6658C100.436 55.7873 100.486 60.405 100.616 60.5367C100.696 60.6177 101.156 60.6582 102.026 60.6582H103.306L103.276 60.324L103.246 60L102.226 59.9696L101.196 59.9392V59.0886V58.2278H101.996H102.796V57.924V57.6202H101.996H101.196V56.9114V56.2025H102.246H103.296V55.8987V55.5949H101.966C101.226 55.5949 100.596 55.6253 100.566 55.6658Z" fill="#7DB4F7"/>
<path id="Vector_60" d="M106.348 55.8173C106.318 55.949 106.308 57.073 106.318 58.3287L106.348 60.6072L106.678 60.6376L106.998 60.668V59.6047C106.998 58.5414 106.998 58.5313 107.238 58.5313C107.428 58.5313 107.598 58.7237 108.118 59.5642C108.648 60.4249 108.798 60.6173 109.028 60.6376C109.468 60.6882 109.438 60.4452 108.898 59.554C108.618 59.0882 108.368 58.6629 108.338 58.592C108.318 58.5313 108.458 58.3895 108.658 58.2781C109.588 57.7718 109.548 56.2427 108.598 55.7464C108.398 55.6452 107.998 55.5946 107.358 55.5946C106.448 55.5946 106.398 55.6047 106.348 55.8173ZM108.358 56.4452C108.568 56.6275 108.638 56.7692 108.638 57.0528C108.638 57.6097 108.348 57.8528 107.598 57.9034L106.998 57.9439V57.073V56.2021H107.538C107.968 56.2021 108.148 56.2528 108.358 56.4452Z" fill="#7DB4F7"/>
<path id="Vector_61" d="M112.858 57.9443C112.438 59.2405 112.098 60.3848 112.098 60.4759C112.098 60.6076 112.178 60.6582 112.388 60.6582C112.658 60.6582 112.698 60.6076 112.898 60L113.118 59.3316L114.028 59.362L114.938 59.3924L115.098 59.8987C115.178 60.1721 115.288 60.4658 115.328 60.5266C115.418 60.6683 115.858 60.7088 115.938 60.5772C115.968 60.5266 115.638 59.4025 115.208 58.0658L114.418 55.6455L114.018 55.6152L113.618 55.5848L112.858 57.9443ZM114.068 58.6126C113.748 58.6329 113.458 58.6228 113.428 58.5924C113.388 58.5519 113.728 57.2962 113.918 56.8101C114.018 56.5772 114.048 56.6481 114.348 57.5696L114.668 58.5823L114.068 58.6126Z" fill="#7DB4F7"/>
<path id="Vector_62" d="M118.859 55.8177C118.779 56.1215 118.779 60.2936 118.859 60.4962C118.899 60.5974 119.039 60.6582 119.209 60.6582H119.499V59.6962V58.7342H120.129C120.869 58.7342 121.339 58.5114 121.679 58.0152C122.009 57.5392 121.959 56.5468 121.599 56.1417C121.169 55.6861 120.879 55.5949 119.869 55.5949C118.969 55.5949 118.919 55.605 118.859 55.8177ZM120.889 56.4658C121.279 56.8 121.319 57.3671 120.969 57.7721C120.789 57.9949 120.629 58.0455 120.119 58.0962L119.499 58.1569V57.1747V56.2025H120.039C120.479 56.2025 120.639 56.2531 120.889 56.4658Z" fill="#7DB4F7"/>
<path id="Vector_63" d="M124.398 55.6758C124.398 55.7163 124.728 56.2732 125.118 56.9112L125.848 58.0758L125.898 59.3416L125.948 60.6074H126.248H126.548L126.578 59.372L126.608 58.1365L127.298 57.0024C127.688 56.3745 127.998 55.8074 127.998 55.7264C127.998 55.6454 127.878 55.5948 127.668 55.5948C127.358 55.5948 127.308 55.6454 126.788 56.5568L126.228 57.5087L125.688 56.5568C125.158 55.615 125.138 55.5948 124.778 55.5948C124.568 55.5948 124.398 55.6251 124.398 55.6758Z" fill="#7DB4F7"/>
<path id="Vector_64" d="M60.3576 4.31261C59.6576 4.53539 58.8076 5.4164 58.4976 6.22653C58.1276 7.20881 58.0376 8.30248 58.2276 9.2645C58.5376 10.7632 59.3776 12.0999 60.2976 12.5759C61.3976 13.1329 62.4776 12.9911 63.2576 12.1708C64.9576 10.3784 64.9876 7.1683 63.3076 5.24425C62.5376 4.36324 61.3476 3.98855 60.3576 4.31261Z" fill="#7DB4F7"/>
</g>
<g id="Silver_3">
<path id="Vector_65" d="M65.229 2.03659C64.999 2.0771 64.699 2.17836 64.559 2.24925C64.009 2.54292 62.869 3.829 62.669 4.37583C62.629 4.49735 62.759 4.71001 63.139 5.09482C63.739 5.69229 64.109 6.36064 64.359 7.26191L64.519 7.85938L64.829 7.5657C65.719 6.7252 67.199 6.49229 67.999 7.07963C68.289 7.29229 68.259 7.41381 68.359 5.81381C68.409 5.00368 68.389 4.65938 68.249 4.20368C67.799 2.62393 66.599 1.76317 65.229 2.03659Z" fill="#A8CDFA"/>
<path id="Vector_66" d="M57.1003 3.8355C56.2903 4.00765 55.6203 4.58487 55.2203 5.46588C54.9203 6.14436 54.8103 7.53171 55.0003 8.43297C55.3503 10.1646 56.7803 11.7646 58.1803 11.9975C58.5803 12.0583 58.6303 12.1089 58.9103 12.676C59.3703 13.5975 60.0703 15.5621 60.3903 16.838C61.0003 19.238 61.2403 21.4355 61.1803 24.0684C61.1603 25.0304 61.1803 25.8203 61.2203 25.8203C61.5603 25.8203 61.5503 21.5671 61.2103 19.3899C60.8303 16.9292 60.2003 14.7722 59.3103 12.838C58.9503 12.0482 58.9303 11.9469 59.2003 11.9469C59.3103 11.9469 59.4003 11.9266 59.4003 11.8963C59.8407 11.998 59.2203 11.5722 59.0003 11.2279C57.7903 9.33424 57.8603 6.64057 59.1503 5.19246L59.5803 4.69626L59.2703 4.49373C58.3003 3.84563 57.7803 3.69373 57.1003 3.8355Z" fill="#A8CDFA"/>
<path id="Vector_67" d="M69.521 10.5099C69.441 12.6973 67.961 14.7125 66.241 14.9555C65.811 15.0163 65.791 15.0264 65.851 15.2694C65.961 15.7049 66.651 16.5758 66.931 16.6163C66.971 16.6264 67.031 16.6365 67.081 16.6467C67.121 16.6568 67.301 16.7175 67.481 16.7986C68.181 17.0922 69.591 16.5049 70.271 15.634C71.011 14.6821 71.351 13.5884 71.271 12.3935C71.231 11.7353 71.161 11.4517 70.941 11.0264C70.651 10.4998 70.131 9.99349 69.751 9.8821C69.571 9.83146 69.551 9.8821 69.521 10.5099Z" fill="#A8CDFA"/>
<path id="Vector_68" d="M64.6724 15.8273C64.5224 18.4703 63.5924 21.5893 61.9124 25.1134C61.6824 25.5792 61.5324 25.9843 61.5624 26.0146C61.7924 26.2475 63.4324 22.6425 64.0724 20.5159C64.8024 18.0551 65.2424 14.8956 64.8624 14.7539C64.7624 14.7134 64.7224 14.9463 64.6724 15.8273Z" fill="#96C1EC"/>
<path id="Vector_69" d="M60.0309 28.5866C58.7009 30.6422 57.9509 33.3258 58.1909 35.0878C58.3009 35.8574 58.8309 37.0625 59.0609 37.0625C59.2609 37.0625 59.2409 36.9714 58.9109 36.3435C58.3309 35.2701 58.2909 34.0853 58.7509 32.2524C58.9809 31.341 59.6509 29.7612 60.1809 28.8701C60.5309 28.2929 60.6109 28.0701 60.5109 28.0093C60.4709 27.979 60.2509 28.2422 60.0309 28.5866Z" fill="#96C1EC"/>
<path id="Vector_70" d="M60.5022 30.2476C60.3322 31.6551 60.3422 33.326 60.5422 34.1564C60.7922 35.2298 61.6022 36.6982 61.8222 36.4754C61.8822 36.4146 61.8022 36.2121 61.6122 35.9286C60.8022 34.7235 60.6522 33.964 60.6822 31.3615C60.6922 30.207 60.6922 29.2653 60.6622 29.2653C60.6422 29.2653 60.5722 29.7108 60.5022 30.2476Z" fill="#96C1EC"/>
</g>
<g id="LightGray">
<path id="Vector_71" d="M60.3018 0.414698C59.2918 0.870394 58.6018 1.94381 58.4218 3.34128L58.3418 3.92862L58.8218 4.16153C59.0918 4.28305 59.3518 4.44508 59.4118 4.51596C59.4918 4.61723 59.6218 4.58685 60.0218 4.38432C60.6318 4.07039 61.5318 4.04001 62.1418 4.30331C62.3518 4.39445 62.5318 4.4552 62.5418 4.43495C62.5518 4.4147 62.7118 4.17166 62.8918 3.87799C63.0618 3.59445 63.4318 3.14888 63.7118 2.88558L64.2118 2.40964L63.9418 1.95394C63.0918 0.485584 61.5618 -0.162517 60.3018 0.414698Z" fill="#F5F9FE"/>
<path id="Vector_72" d="M65.8495 6.98783C65.5795 7.09922 65.1795 7.32201 64.9795 7.50429L64.5995 7.80808V8.74986C64.5995 10.1169 64.2595 11.1397 63.5495 11.9397C63.2195 12.3043 63.2095 12.3448 63.3095 12.7195C63.5795 13.7119 64.1095 14.4005 64.8795 14.7549C65.3495 14.9676 65.5095 14.998 65.9895 14.9372C68.0395 14.6942 69.6395 12.4359 69.4695 10.0258C69.3095 7.63593 67.6795 6.27897 65.8495 6.98783Z" fill="#F5F9FE"/>
<path id="Vector_73" d="M61.3309 13.0837C61.4509 13.5698 61.8009 15.6862 61.9109 16.6584C62.0809 17.9951 62.0809 21.4786 61.9109 22.6837C61.8409 23.2103 61.7009 24.0508 61.5909 24.5571C61.4909 25.0533 61.4009 25.5597 61.4009 25.6913C61.4009 25.8635 61.3409 25.9242 61.1809 25.9242C60.8309 25.9242 60.3009 26.8154 60.3009 27.3926C60.3009 27.5343 60.0009 28.0609 59.5909 28.628C58.1709 30.6128 57.2909 32.9318 57.3109 34.6736C57.3109 35.5445 57.4609 36.1622 57.6909 36.2331C57.8009 36.2736 57.8109 36.2128 57.7609 35.99C57.3509 34.2786 57.8409 32.0913 59.1109 29.9546C59.3809 29.4989 59.6409 29.0938 59.6809 29.0635C59.7209 29.0331 59.9109 28.7495 60.1009 28.4356C60.2909 28.1116 60.4809 27.8888 60.5209 27.9293C60.5609 27.9698 60.4409 28.4761 60.2509 29.0533C59.6609 30.8255 59.4809 31.8786 59.4709 33.4685C59.4609 34.6027 59.4909 34.9976 59.6409 35.4432C59.8609 36.1014 60.3509 36.8609 60.5509 36.8609C60.7509 36.8609 60.7409 36.6179 60.5409 36.4457C60.2409 36.1926 59.9009 35.3419 59.7909 34.5622C59.6709 33.6812 59.7409 32.4457 59.9709 31.2913C60.1309 30.4913 60.5809 28.9622 60.6809 28.8407C60.7209 28.8002 60.7609 29.3976 60.7609 30.1571C60.7709 31.2103 60.8209 31.7268 60.9809 32.3242C61.2909 33.4786 61.7809 34.5926 62.3509 35.4533C62.8509 36.1824 62.8709 36.2533 62.9409 37.104C63.1609 39.8584 64.6309 42.9571 66.8909 45.4078C67.3109 45.8635 67.4909 46.147 67.5409 46.4407C67.5909 46.6533 67.6809 46.9875 67.7509 47.1597C68.0109 47.7976 68.2409 47.5141 68.4109 46.3394L68.5209 45.5698L67.7209 44.1824C67.0009 42.9267 66.5609 41.9242 66.3609 41.0736C66.2909 40.8002 66.3209 40.8103 66.9409 41.3267C68.0009 42.2179 68.6409 42.5622 69.3209 42.6128C69.7909 42.6533 69.9509 42.623 70.1109 42.4711C70.4509 42.1571 70.7009 41.5597 70.8209 40.7698L70.9409 40.0305L71.2209 40.1926C71.6109 40.4255 71.7509 40.2533 71.6109 39.7268C71.3809 38.8559 70.8209 38.3698 70.4309 38.704C70.3409 38.7749 70.1309 39.1293 69.9709 39.4938C69.6509 40.223 69.4409 40.5065 69.2309 40.5065C69.0009 40.5065 67.8809 39.3622 67.5209 38.7546C67.1509 38.1268 66.7609 37.0533 66.6609 36.3445L66.5909 35.8786L67.2709 35.7673C68.5909 35.5445 69.7109 34.7749 71.3109 32.9622C71.5109 32.7394 71.9009 32.3647 72.1709 32.1318C72.7609 31.6255 73.0209 31.1293 72.9809 30.6027C72.9409 30.066 72.5909 30.0457 72.0209 30.5318C71.7209 30.7951 71.6009 30.8559 71.6009 30.7445C71.6009 30.6533 71.5209 30.5824 71.4109 30.5824C71.2209 30.5824 70.8909 31.1597 70.7409 31.7268C70.6109 32.2635 69.0209 33.509 67.9609 33.9141C67.3009 34.1673 66.6009 34.2685 66.1509 34.1875C65.6709 34.0964 65.7109 33.9749 66.2809 33.8331C67.9909 33.3976 69.1909 32.1521 69.5009 30.4812C69.7809 29.0027 69.0809 27.4938 67.8309 26.8761C67.0009 26.4609 66.0609 26.4711 65.1909 26.9065C64.4409 27.2812 64.1509 27.5647 63.6509 28.4052C62.5709 30.2381 62.6609 31.9597 63.9109 33.2255C64.5409 33.8635 64.5609 34.0964 63.9409 33.6305C62.6509 32.6888 61.8209 31.0179 61.6409 29.023C61.5909 28.3951 61.6109 28.2331 61.7909 27.8685C62.0209 27.4128 62.0609 26.9976 61.9009 26.5926C61.8109 26.3495 61.9009 26.2078 62.9109 24.9318C64.3409 23.1293 65.6809 21.104 66.2909 19.8179C66.7809 18.785 67.3009 17.2862 67.3009 16.9014C67.3009 16.466 67.0609 16.8002 66.8509 17.5293C66.2309 19.6356 65.0109 21.7622 62.9209 24.3951C62.4509 24.9824 61.9809 25.6103 61.8609 25.7926C61.6209 26.1774 61.4409 26.2381 61.5509 25.8938C62.3409 23.3521 62.5709 20.0609 62.1909 16.5571C62.0509 15.1799 61.6909 13.1343 61.5809 12.9824C61.4109 12.7799 61.2709 12.8407 61.3309 13.0837Z" fill="#7DB4F7"/>
</g>
</g>
</g>
<defs>
<clipPath id="clip0_2053_508">
<rect width="128" height="72" fill="white"/>
</clipPath>
</defs>
</svg>
