<?xml version="1.0" encoding="UTF-8" standalone="no" ?>
<!DOCTYPE svg PUBLIC "-//W3C//DTD SVG 1.1//EN" "http://www.w3.org/Graphics/SVG/1.1/DTD/svg11.dtd">
<svg xmlns="http://www.w3.org/2000/svg" xmlns:xlink="http://www.w3.org/1999/xlink" version="1.1" width="1280" height="1024" viewBox="0 0 1280 1024" xml:space="preserve">
<desc>Created with Fabric.js 5.3.0</desc>
<defs>
</defs>
<g transform="matrix(1 0 0 1 640 512)" id="background-logo"  >
<rect style="stroke: none; stroke-width: 0; stroke-dasharray: none; stroke-linecap: butt; stroke-dashoffset: 0; stroke-linejoin: miter; stroke-miterlimit: 4; fill: rgb(255,255,255); fill-opacity: 0; fill-rule: nonzero; opacity: 1;"  paint-order="stroke"  x="-640" y="-512" rx="0" ry="0" width="1280" height="1024" />
</g>
<g transform="matrix(1.9211538461538462 0 0 1.9211538461538462 640 415.2884004930914)" id="logo-logo"  >
<g style=""  paint-order="stroke"   >
		<g transform="matrix(2.2582996926828987 0 0 -2.2582996926828987 -7.824796606459984 4.098302987994202)"  >
<path style="stroke: none; stroke-width: 1; stroke-dasharray: none; stroke-linecap: butt; stroke-dashoffset: 0; stroke-linejoin: miter; stroke-miterlimit: 4; fill: rgb(245,249,254); fill-rule: nonzero; opacity: 1;"  paint-order="stroke"  transform=" translate(10.70490619992247, 17.798019020864192)" d="M 0 0 C 0.018 0.114 -0.059 0.221 -0.172 0.239 C -0.286 0.258 -0.393 0.18 -0.411 0.067 C -1.712 -7.929 -7.055999999999999 -14.408 -12.222999999999999 -20.673 C -12.421 -20.913999999999998 -12.610999999999999 -21.148 -12.806999999999999 -21.386999999999997 C -10.232 -13.181999999999997 -10.128999999999998 -3.512999999999998 -12.511 7.361000000000004 C -12.534999999999998 7.473000000000004 -12.645 7.545000000000004 -12.758999999999999 7.520000000000004 C -12.870999999999999 7.495000000000004 -12.941999999999998 7.384000000000004 -12.916999999999998 7.272000000000004 C -10.530999999999999 -3.625999999999996 -10.649999999999999 -13.298999999999998 -13.268999999999998 -21.479 C -13.354 -21.743 -13.449999999999998 -22.011 -13.538999999999998 -22.279 C -13.778999999999998 -22.574 -14.027999999999999 -22.873 -14.263999999999998 -23.165 C -16.473999999999997 -25.9 -18.697999999999997 -28.895 -19.99 -32.257999999999996 C -21.541999999999998 -36.297 -21.825999999999997 -39.495999999999995 -20.831999999999997 -41.76599999999999 C -20.798 -41.843999999999994 -20.721999999999998 -41.88999999999999 -20.641 -41.88999999999999 C -20.613999999999997 -41.88999999999999 -20.584999999999997 -41.88499999999999 -20.558 -41.87299999999999 C -20.453 -41.82699999999999 -20.405 -41.70399999999999 -20.451 -41.59899999999999 C -21.399 -39.43299999999999 -21.113 -36.34099999999999 -19.602 -32.40799999999999 C -18.330000000000002 -29.09799999999999 -16.129 -26.13599999999999 -13.940000000000001 -23.426999999999985 C -13.932000000000002 -23.415999999999986 -13.922 -23.404999999999987 -13.914000000000001 -23.393999999999984 C -14.018 -23.699999999999985 -14.118000000000002 -24.007999999999985 -14.221000000000002 -24.308999999999983 C -15.448000000000002 -27.873999999999985 -16.718000000000004 -31.559999999999985 -16.818 -35.33399999999998 C -16.897000000000002 -38.323999999999984 -16.796000000000003 -40.96799999999998 -14.742 -43.05899999999998 C -14.701 -43.09999999999998 -14.647 -43.12099999999998 -14.593000000000002 -43.12099999999998 C -14.540000000000001 -43.12099999999998 -14.488000000000001 -43.10099999999998 -14.447000000000001 -43.06099999999998 C -14.365 -42.98099999999998 -14.364 -42.848999999999975 -14.445 -42.76699999999998 C -16.384 -40.792999999999985 -16.478 -38.237999999999985 -16.401 -35.344999999999985 C -16.303 -31.634999999999984 -15.044 -27.979999999999983 -13.827 -24.444999999999986 C -13.606 -23.799999999999986 -13.387 -23.140999999999988 -13.168 -22.483999999999988 C -12.747 -21.969999999999988 -12.331 -21.45899999999999 -11.902 -20.937999999999988 C -6.941 -14.924 -1.32 -8.107 0 0" stroke-linecap="round" />
</g>
		<g transform="matrix(2.2582996926828987 0 0 -2.2582996926828987 -11.555697704533088 2.37025504004788)"  >
<path style="stroke: none; stroke-width: 1; stroke-dasharray: none; stroke-linecap: butt; stroke-dashoffset: 0; stroke-linejoin: miter; stroke-miterlimit: 4; fill: rgb(92,140,192); fill-rule: nonzero; opacity: 1;"  paint-order="stroke"  transform=" translate(-1.2700096634319005, -8.860879660934046)" d="M 0 0 C 0.19 1.167 0.369 2.353 0.522 3.526 C 5.974 13.341 8.45 21.497 8.507 29.782 C 8.508 29.897 8.415 29.99 8.3 29.991 L 8.299 29.991 C 8.184 29.991 8.091 29.899 8.09 29.784 C 8.036 21.832 5.726 13.988 0.661 4.644 C 0.675 4.776 0.6980000000000001 4.914 0.7100000000000001 5.045 C 1.7570000000000001 16.134999999999998 -0.18199999999999994 26.628 -4.898 35.389 C -4.952 35.491 -5.077999999999999 35.528000000000006 -5.18 35.474000000000004 C -5.281 35.419000000000004 -5.319 35.293000000000006 -5.265 35.19200000000001 C -0.5880000000000001 26.503000000000007 1.335 16.092000000000006 0.29600000000000026 5.085000000000008 C 0.252 4.62 0.181 4.136 0.119 3.659 C -0.137 3.199 -0.391 2.74 -0.66 2.273 C -0.845 1.951 -1.032 1.63 -1.219 1.308 C -2.587 -1.047 -4.001 -3.481 -4.86 -6.1 C -6.524 -11.178 -6.311 -15.08 -4.228000000000001 -17.698 C -4.187 -17.75 -4.126 -17.777 -4.065 -17.777 C -4.019 -17.777 -3.9730000000000003 -17.762 -3.9350000000000005 -17.732 C -3.8450000000000006 -17.66 -3.8300000000000005 -17.529 -3.9020000000000006 -17.439 C -6.381 -14.323 -5.5760000000000005 -9.623999999999999 -4.464 -6.23 C -3.6190000000000007 -3.6520000000000006 -2.216 -1.237 -0.8590000000000004 1.0989999999999993 C -0.6720000000000004 1.4209999999999994 -0.48500000000000043 1.7429999999999994 -0.3000000000000004 2.0649999999999995 C -0.20200000000000037 2.2339999999999995 -0.11300000000000038 2.3989999999999996 -0.017000000000000404 2.5679999999999996 C -0.14 1.733 -0.276 0.893 -0.411 0.067 C -1.369 -5.802 -2.359 -11.871 1.442 -16.49 C 1.4829999999999999 -16.54 1.542 -16.566 1.603 -16.566 C 1.649 -16.566 1.696 -16.551 1.7349999999999999 -16.519 C 1.8239999999999998 -16.445999999999998 1.8359999999999999 -16.314 1.763 -16.226 C -1.918 -11.752 -0.943 -5.778 0 0" stroke-linecap="round" />
</g>
		<g transform="matrix(2.2582996926828987 0 0 -2.2582996926828987 29.863529306069324 -6.625050227553061)"  >
<path style="stroke: none; stroke-width: 1; stroke-dasharray: none; stroke-linecap: butt; stroke-dashoffset: 0; stroke-linejoin: miter; stroke-miterlimit: 4; fill: rgb(0,0,128); fill-rule: nonzero; opacity: 1;"  paint-order="stroke"  transform=" translate(1.2420000000000004, 2.5395)" d="M 0 0 L -0.392 -1.94 L 1.3319999999999999 -2.912 L -0.6340000000000001 -3.139 L -1.0260000000000002 -5.079 L -1.8490000000000002 -3.279 L -3.8160000000000003 -3.506 L -2.3580000000000005 -2.167 L -3.1820000000000004 -0.36699999999999977 L -1.4570000000000003 -1.3389999999999997 z" stroke-linecap="round" />
</g>
		<g transform="matrix(2.2582996926828987 0 0 -2.2582996926828987 -33.24330062613859 -21.721332013199685)"  >
<path style="stroke: none; stroke-width: 1; stroke-dasharray: none; stroke-linecap: butt; stroke-dashoffset: 0; stroke-linejoin: miter; stroke-miterlimit: 4; fill: rgb(0,0,128); fill-rule: nonzero; opacity: 1;"  paint-order="stroke"  transform=" translate(-1.5259999999999998, 3.22)" d="M 0 0 L 1.825 -1.714 L 4.02 -0.508 L 2.953 -2.774 L 4.778 -4.488 L 2.294 -4.174 L 1.228 -6.44 L 0.759 -3.98 L -1.726 -3.666 L 0.469 -2.46 Z" stroke-linecap="round" />
</g>
		<g transform="matrix(2.2582996926828987 0 0 -2.2582996926828987 47.60337671197067 -46.02492747588377)"  >
<path style="stroke: none; stroke-width: 1; stroke-dasharray: none; stroke-linecap: butt; stroke-dashoffset: 0; stroke-linejoin: miter; stroke-miterlimit: 4; fill: rgb(0,0,128); fill-rule: nonzero; opacity: 1;"  paint-order="stroke"  transform=" translate(-1.5259999999999998, 3.22)" d="M 0 0 L 1.825 -1.714 L 4.02 -0.508 L 2.953 -2.774 L 4.778 -4.488 L 2.294 -4.174 L 1.228 -6.44 L 0.759 -3.98 L -1.726 -3.666 L 0.469 -2.46 Z" stroke-linecap="round" />
</g>
		<g transform="matrix(2.2582996926828987 0 0 -2.2582996926828987 35.71388048993373 -27.670596723603495)"  >
<path style="stroke: none; stroke-width: 1; stroke-dasharray: none; stroke-linecap: butt; stroke-dashoffset: 0; stroke-linejoin: miter; stroke-miterlimit: 4; fill: rgb(0,0,128); fill-rule: nonzero; opacity: 1;"  paint-order="stroke"  transform=" translate(0.7755000000000001, 1.5859999999999999)" d="M 0 0 L -0.245 -1.212 L 0.832 -1.819 L -0.396 -1.96 L -0.641 -3.1719999999999997 L -1.155 -2.0479999999999996 L -2.383 -2.1899999999999995 L -1.4729999999999999 -1.3529999999999995 L -1.9869999999999999 -0.22899999999999943 L -0.9099999999999999 -0.8359999999999994 z" stroke-linecap="round" />
</g>
		<g transform="matrix(2.2582996926828987 0 0 -2.2582996926828987 -41.016368168353154 -52.617355938763666)"  >
<path style="stroke: none; stroke-width: 1; stroke-dasharray: none; stroke-linecap: butt; stroke-dashoffset: 0; stroke-linejoin: miter; stroke-miterlimit: 4; fill: rgb(0,0,128); fill-rule: nonzero; opacity: 1;"  paint-order="stroke"  transform=" translate(-0.7174999999999999, 1.5945)" d="M 0 0 L 0.886 -0.862 L 1.979 -0.286 L 1.433 -1.395 L 2.319 -2.257 L 1.096 -2.08 L 0.549 -3.189 L 0.34 -1.971 L -0.884 -1.794 L 0.21 -1.218 Z" stroke-linecap="round" />
</g>
		<g transform="matrix(2.2582996926828987 0 0 -2.2582996926828987 -51.330700354743726 -36.17083676686195)"  >
<path style="stroke: none; stroke-width: 1; stroke-dasharray: none; stroke-linecap: butt; stroke-dashoffset: 0; stroke-linejoin: miter; stroke-miterlimit: 4; fill: rgb(0,0,128); fill-rule: nonzero; opacity: 1;"  paint-order="stroke"  transform=" translate(-0.7174999999999999, 1.5945)" d="M 0 0 L 0.886 -0.862 L 1.979 -0.286 L 1.433 -1.395 L 2.319 -2.257 L 1.096 -2.08 L 0.549 -3.189 L 0.34 -1.971 L -0.884 -1.794 L 0.21 -1.218 Z" stroke-linecap="round" />
</g>
		<g transform="matrix(2.2582996926828987 0 0 -2.2582996926828987 -12.08145169591495 -92.08453051793634)"  >
<path style="stroke: none; stroke-width: 1; stroke-dasharray: none; stroke-linecap: butt; stroke-dashoffset: 0; stroke-linejoin: miter; stroke-miterlimit: 4; fill: rgb(245,249,254); fill-rule: nonzero; opacity: 1;"  paint-order="stroke"  transform=" translate(6.4895, 0.6835000000000004)" d="M 0 0 C 0.504 -4.785 -1.993 -8.97 -5.577 -9.348 C -9.161 -9.725000000000001 -12.475 -6.152000000000001 -12.979 -1.3670000000000009 C -13.482999999999999 3.4179999999999993 -10.985999999999999 7.603 -7.401999999999999 7.981 C -3.818 8.358 -0.504 4.785 0 0" stroke-linecap="round" />
</g>
		<g transform="matrix(2.2582996926828987 0 0 -2.2582996926828987 -28.38134624835999 -75.39484864075453)"  >
<path style="stroke: none; stroke-width: 1; stroke-dasharray: none; stroke-linecap: butt; stroke-dashoffset: 0; stroke-linejoin: miter; stroke-miterlimit: 4; fill: rgb(92,140,192); fill-rule: nonzero; opacity: 1;"  paint-order="stroke"  transform=" translate(6.243073002076828, 1.8984751265865896)" d="M 0 0 C 1.4 -4.604 -0.261 -9.185 -3.709 -10.234 C -7.157 -11.282 -11.087 -8.4 -12.485999999999999 -3.7969999999999997 C -13.886 0.8070000000000004 -12.225999999999999 5.389 -8.777999999999999 6.437 C -5.33 7.485 -1.4 4.604 0 0" stroke-linecap="round" />
</g>
		<g transform="matrix(2.2582996926828987 0 0 -2.2582996926828987 24.051343387011514 -75.39643145146931)"  >
<path style="stroke: none; stroke-width: 1; stroke-dasharray: none; stroke-linecap: butt; stroke-dashoffset: 0; stroke-linejoin: miter; stroke-miterlimit: 4; fill: rgb(0,0,128); fill-rule: nonzero; opacity: 1;"  paint-order="stroke"  transform=" translate(5.333000000000001, -1.970825759447247)" d="M 0 0 C -1.453 -3.932 -5.019 -6.238 -7.964 -5.149 C -10.91 -4.061 -12.119 0.009000000000000341 -10.666 3.9419999999999993 C -9.213000000000001 7.873999999999999 -5.647 10.178999999999998 -2.702 9.091 C 0.244 8.002 1.453 3.932 0 0" stroke-linecap="round" />
</g>
		<g transform="matrix(2.2582996926828987 0 0 -2.2582996926828987 5.939877933781304 -83.955056182421)"  >
<path style="stroke: none; stroke-width: 1; stroke-dasharray: none; stroke-linecap: butt; stroke-dashoffset: 0; stroke-linejoin: miter; stroke-miterlimit: 4; fill: rgb(92,140,192); fill-rule: nonzero; opacity: 1;"  paint-order="stroke"  transform=" translate(6.290556568170709, -1.7344791428057125)" d="M 0 0 C -1.279 -4.639 -5.132 -7.622 -8.606 -6.664 C -12.081 -5.7059999999999995 -13.86 -1.17 -12.581 3.4689999999999994 C -11.302999999999999 8.107 -7.449 11.091 -3.9749999999999996 10.133 C -0.501 9.175 1.279 4.639 0 0" stroke-linecap="round" />
</g>
		<g transform="matrix(2.2582996926828987 0 0 -2.2582996926828987 21.401680357586542 -49.85212613762528)"  >
<path style="stroke: none; stroke-width: 1; stroke-dasharray: none; stroke-linecap: butt; stroke-dashoffset: 0; stroke-linejoin: miter; stroke-miterlimit: 4; fill: rgb(92,140,192); fill-rule: nonzero; opacity: 1;"  paint-order="stroke"  transform=" translate(5.333000000000001, -1.970825759447247)" d="M 0 0 C -1.453 -3.932 -5.019 -6.238 -7.964 -5.149 C -10.91 -4.061 -12.119 0.009000000000000341 -10.666 3.9419999999999993 C -9.213000000000001 7.873999999999999 -5.647 10.178999999999998 -2.702 9.091 C 0.244 8.002 1.453 3.932 0 0" stroke-linecap="round" />
</g>
		<g transform="matrix(2.2582996926828987 0 0 -2.2582996926828987 11.283240836638356 -61.428968407847606)"  >
<path style="stroke: none; stroke-width: 1; stroke-dasharray: none; stroke-linecap: butt; stroke-dashoffset: 0; stroke-linejoin: miter; stroke-miterlimit: 4; fill: rgb(245,249,254); fill-rule: nonzero; opacity: 1;"  paint-order="stroke"  transform=" translate(6.290556568170709, -1.7344791428057125)" d="M 0 0 C -1.279 -4.639 -5.132 -7.622 -8.606 -6.664 C -12.081 -5.7059999999999995 -13.86 -1.17 -12.581 3.4689999999999994 C -11.302999999999999 8.107 -7.449 11.091 -3.9749999999999996 10.133 C -0.501 9.175 1.279 4.639 0 0" stroke-linecap="round" />
</g>
		<g transform="matrix(2.2582996926828987 0 0 -2.2582996926828987 -12.721196813007339 -72.60715589597595)"  >
<path style="stroke: none; stroke-width: 1; stroke-dasharray: none; stroke-linecap: butt; stroke-dashoffset: 0; stroke-linejoin: miter; stroke-miterlimit: 4; fill: rgb(0,0,128); fill-rule: nonzero; opacity: 1;"  paint-order="stroke"  transform=" translate(6.857886190564168, 0.7674962062205211)" d="M 0 0 C 0.566 -5.057 -2.046 -9.499 -5.833 -9.923 C -9.621 -10.347 -13.15 -6.591 -13.716000000000001 -1.5350000000000001 C -14.281 3.5220000000000002 -11.670000000000002 7.965 -7.8820000000000014 8.388 C -4.095 8.812 -0.566 5.057 0 0" stroke-linecap="round" />
</g>
		<g transform="matrix(2.2582996926828987 0 0 -2.2582996926828987 12.74846781198039 60.65323931626267)"  >
<path style="stroke: none; stroke-width: 1; stroke-dasharray: none; stroke-linecap: butt; stroke-dashoffset: 0; stroke-linejoin: miter; stroke-miterlimit: 4; fill: rgb(245,249,254); fill-rule: nonzero; opacity: 1;"  paint-order="stroke"  transform=" translate(-4.470862089551966, 6.204068303269771)" d="M 0 0 C 0 0 -4.256 2.502 -3.33 7.176 C -2.58 10.966000000000001 0.12699999999999978 15.019 4.42 14.838000000000001 C 7.394 14.712 9.668 12.619 10.334 9.79 C 10.975 7.068 9.98 4.099 7.979 2.178 C 6.416 0.677 4.693 -0.042 2.605 -0.402 L 2.594 -0.992 C 2.594 -0.992 7.199 -2.612 13.03 3.404 C 13.03 3.404 13.817 6.204 14.440999999999999 6.413 C 15.065999999999999 6.621 14.789 5.3020000000000005 14.789 5.3020000000000005 C 14.789 5.3020000000000005 16.524 7.523000000000001 17.496 7.292000000000001 C 18.468 7.061000000000001 17.866 3.8210000000000006 14.579999999999998 2.271000000000001 C 14.579999999999998 2.271000000000001 10.113999999999997 -4.670999999999999 4.213999999999999 -4.323999999999999 C 4.213999999999999 -4.323999999999999 4.328999999999999 -8.674999999999999 7.059999999999999 -11.937 C 9.79 -15.2 10.437999999999999 -14.76 11.108999999999998 -13.349 C 11.779999999999998 -11.937000000000001 12.173999999999998 -10.318 13.145999999999997 -10.318 C 14.116999999999997 -10.318 15.065999999999997 -12.608 14.973999999999997 -13.465 C 14.880999999999997 -14.321 13.469999999999997 -12.932 13.469999999999997 -12.932 C 13.469999999999997 -12.932 13.237999999999998 -17.861 11.201999999999998 -18.602 C 8.548999999999998 -19.566 3.4959999999999978 -14.413 3.4959999999999978 -14.413 C 3.4959999999999978 -14.413 4.120999999999998 -17.815 5.485999999999998 -20.152 C 6.8519999999999985 -22.489 8.077999999999998 -24.479 8.193999999999999 -24.873 C 8.309 -25.266000000000002 7.892999999999999 -28.621000000000002 7.383999999999999 -28.806 C 6.874999999999998 -28.992 6.2959999999999985 -25.868000000000002 6.179999999999999 -25.636000000000003 C 6.064999999999999 -25.405 -3.4400000000000004 -16.918000000000003 -3.4350000000000014 -5.111000000000004 C -3.4350000000000014 -5.111000000000004 -9.277000000000001 1.043999999999996 -7.935000000000001 11.364999999999995 C -7.935000000000001 11.364999999999995 -8.959000000000001 12.382999999999996 -8.976 13.163999999999994 C -8.994000000000002 13.944999999999995 -7.724000000000001 16.586999999999996 -6.943000000000001 16.395999999999994 C -6.162000000000002 16.204999999999995 -5.434000000000001 14.388999999999994 -5.434000000000001 13.711999999999993 C -5.434000000000001 13.034999999999993 -6.373000000000001 11.531999999999993 -6.373000000000001 11.531999999999993 C -6.373000000000001 11.531999999999993 -6.778000000000001 2.4329999999999927 -0.2060000000000013 -0.6680000000000064 z" stroke-linecap="round" />
</g>
</g>
</g>
<g transform="matrix(1.9211538461538462 0 0 1.9211538461538462 639.9763828060284 727.1511573550061)" id="text-logo"  >
<g style=""  paint-order="stroke"   >
		<g transform="matrix(1 0 0 1 5.684342e-14 0)" id="text-logo-path-0"  >
<path style="stroke: none; stroke-width: 0; stroke-dasharray: none; stroke-linecap: butt; stroke-dashoffset: 0; stroke-linejoin: miter; stroke-miterlimit: 4; fill: rgb(0,0,128); fill-rule: nonzero; opacity: 1;"  paint-order="stroke"  transform=" translate(-308.22010231825556, 11.585)" d="M 1.49 -23.16 L 1.49 -21.48 C 1.49 -21.22 1.71 -21.02 1.98 -21.02 L 7.85 -21.02 L 7.85 -0.48 C 7.85 -0.22 8.07 0 8.33 0 L 10.16 0 C 10.43 0 10.64 -0.22 10.64 -0.48 L 10.64 -21.02 L 16.52 -21.02 C 16.78 -21.02 17 -21.22 17 -21.48 L 17 -23.16 C 17 -23.42 16.78 -23.62 16.52 -23.62 L 1.98 -23.62 C 1.71 -23.62 1.49 -23.42 1.49 -23.16 Z M 34.88 -23.19 L 27.51 -0.75 C 27.38 -0.33 27.59 0 28.01 0 L 29.69 0 C 29.97 0 30.27 -0.18 30.33 -0.45 L 32.23 -6.36 L 41.07 -6.36 L 42.98 -0.45 C 43.1 -0.15 43.3 0 43.61 0 L 45.29 0 C 45.71 0 45.94 -0.33 45.81 -0.75 L 38.42 -23.19 C 38.3 -23.47 38.09 -23.62 37.77 -23.62 L 35.53 -23.62 C 35.21 -23.62 35 -23.47 34.88 -23.19 Z M 33.02 -8.83 L 36.66 -20.09 L 40.29 -8.83 Z M 62.18 -23.26 L 59.22 -0.61 C 59.17 -0.3 59.42 0 59.77 0 L 61.36 0 C 61.74 0 61.98 -0.2 62.04 -0.58 L 64.28 -18.91 L 70.81 0 C 70.93 0.3 71.14 0.45 71.46 0.45 L 73.17 0.45 C 73.48 0.45 73.7 0.3 73.81 0 L 80.34 -18.84 L 82.58 -0.58 C 82.65 -0.2 82.88 0 83.26 0 L 84.89 0 C 85.22 0 85.49 -0.3 85.44 -0.61 L 82.51 -23.06 C 82.5 -23.41 82.18 -23.62 81.83 -23.62 L 79.49 -23.62 C 79.28 -23.62 79.14 -23.52 79.08 -23.33 L 72.32 -3.77 L 65.61 -23.19 C 65.55 -23.44 65.25 -23.62 64.97 -23.62 L 62.59 -23.62 C 62.36 -23.62 62.23 -23.51 62.18 -23.26 Z M 100.69 -22.41 L 100.69 -0.48 C 100.69 -0.22 100.91 0 101.18 0 L 103.02 0 C 103.28 0 103.48 -0.22 103.48 -0.48 L 103.48 -9.01 L 107.63 -9.01 C 109.69 -9.01 111.45 -9.73 112.9 -11.16 C 114.34 -12.57 115.05 -14.29 115.05 -16.32 C 115.05 -18.34 114.34 -20.07 112.9 -21.5 C 111.45 -22.91 109.69 -23.62 107.63 -23.62 L 101.92 -23.62 C 101.24 -23.62 100.69 -23.09 100.69 -22.41 Z M 107.47 -11.62 L 103.48 -11.62 L 103.48 -21.02 L 107.47 -21.02 C 108.78 -21.02 109.89 -20.55 110.82 -19.64 C 111.73 -18.73 112.2 -17.61 112.2 -16.32 C 112.2 -15.02 111.73 -13.91 110.82 -13 C 109.89 -12.09 108.78 -11.62 107.47 -11.62 Z M 133.63 -23.19 L 126.26 -0.75 C 126.13 -0.33 126.35 0 126.76 0 L 128.44 0 C 128.72 0 129.02 -0.18 129.08 -0.45 L 130.98 -6.36 L 139.83 -6.36 L 141.73 -0.45 C 141.85 -0.15 142.05 0 142.37 0 L 144.04 0 C 144.46 0 144.69 -0.33 144.56 -0.75 L 137.17 -23.19 C 137.05 -23.47 136.84 -23.62 136.52 -23.62 L 134.28 -23.62 C 133.97 -23.62 133.75 -23.47 133.63 -23.19 Z M 131.77 -8.83 L 135.41 -20.09 L 139.05 -8.83 Z M 177.98 -22.41 L 177.98 -1.23 C 177.98 -0.55 178.53 0 179.21 0 L 185.95 0 C 187.87 0 189.5 -0.66 190.85 -2.01 C 192.17 -3.35 192.84 -5 192.84 -6.94 C 192.84 -8.28 192.49 -9.5 191.81 -10.56 C 191.11 -11.62 190.17 -12.4 188.97 -12.88 C 190.51 -14.09 191.28 -15.67 191.28 -17.65 C 191.28 -19.37 190.7 -20.8 189.52 -21.93 C 188.34 -23.06 186.86 -23.62 185.09 -23.62 L 179.21 -23.62 C 178.53 -23.62 177.98 -23.09 177.98 -22.41 Z M 185.77 -2.56 L 180.7 -2.56 L 180.7 -10.99 L 185.77 -10.99 C 186.98 -10.99 187.99 -10.59 188.8 -9.81 C 189.62 -9.01 190.02 -8.02 190.02 -6.81 C 190.02 -5.59 189.62 -4.6 188.8 -3.79 C 187.99 -2.97 186.98 -2.56 185.77 -2.56 Z M 184.65 -13.53 L 180.7 -13.53 L 180.7 -21.12 L 184.82 -21.12 C 185.88 -21.12 186.76 -20.77 187.48 -20.07 C 188.17 -19.37 188.52 -18.51 188.52 -17.48 C 188.52 -16.4 188.14 -15.49 187.39 -14.71 C 186.63 -13.93 185.72 -13.53 184.65 -13.53 Z M 212.96 -23.19 L 205.59 -0.75 C 205.46 -0.33 205.67 0 206.09 0 L 207.76 0 C 208.05 0 208.35 -0.18 208.41 -0.45 L 210.31 -6.36 L 219.15 -6.36 L 221.06 -0.45 C 221.18 -0.15 221.38 0 221.69 0 L 223.37 0 C 223.79 0 224.02 -0.33 223.89 -0.75 L 216.5 -23.19 C 216.38 -23.47 216.17 -23.62 215.85 -23.62 L 213.61 -23.62 C 213.29 -23.62 213.08 -23.47 212.96 -23.19 Z M 211.1 -8.83 L 214.74 -20.09 L 218.37 -8.83 Z M 236.39 -22.71 L 243.36 -11.39 L 243.36 -0.48 C 243.36 -0.22 243.56 0 243.83 0 L 245.67 0 C 245.93 0 246.15 -0.22 246.15 -0.48 L 246.15 -11.49 L 253.07 -22.71 C 253.34 -23.16 253.09 -23.62 252.57 -23.62 L 250.73 -23.62 C 250.52 -23.62 250.35 -23.52 250.22 -23.33 L 244.76 -14.24 L 239.24 -23.33 C 239.11 -23.52 238.94 -23.62 238.73 -23.62 L 236.9 -23.62 C 236.39 -23.62 236.12 -23.16 236.39 -22.71 Z M 286.58 -22.41 L 286.58 -0.48 C 286.58 -0.22 286.79 0 287.06 0 L 288.9 0 C 289.17 0 289.37 -0.22 289.37 -0.48 L 289.37 -9.01 L 293.52 -9.01 C 295.58 -9.01 297.34 -9.73 298.78 -11.16 C 300.22 -12.57 300.94 -14.29 300.94 -16.32 C 300.94 -18.34 300.22 -20.07 298.78 -21.5 C 297.34 -22.91 295.58 -23.62 293.52 -23.62 L 287.81 -23.62 C 287.13 -23.62 286.58 -23.09 286.58 -22.41 Z M 293.35 -11.62 L 289.37 -11.62 L 289.37 -21.02 L 293.35 -21.02 C 294.66 -21.02 295.78 -20.55 296.71 -19.64 C 297.62 -18.73 298.08 -17.61 298.08 -16.32 C 298.08 -15.02 297.62 -13.91 296.71 -13 C 295.78 -12.09 294.66 -11.62 293.35 -11.62 Z M 315.5 -23.16 L 315.5 -1.23 C 315.5 -0.55 316.05 0 316.73 0 L 326.89 0 C 327.15 0 327.37 -0.22 327.37 -0.48 L 327.37 -2.14 C 327.37 -2.41 327.15 -2.62 326.89 -2.62 L 318.29 -2.62 L 318.29 -23.16 C 318.29 -23.42 318.09 -23.62 317.82 -23.62 L 315.98 -23.62 C 315.72 -23.62 315.5 -23.42 315.5 -23.16 Z M 348.16 -23.19 L 340.79 -0.75 C 340.65 -0.33 340.87 0 341.28 0 L 342.96 0 C 343.24 0 343.54 -0.18 343.61 -0.45 L 345.5 -6.36 L 354.35 -6.36 L 356.26 -0.45 C 356.37 -0.15 356.57 0 356.89 0 L 358.57 0 C 358.98 0 359.21 -0.33 359.08 -0.75 L 351.69 -23.19 C 351.58 -23.47 351.36 -23.62 351.05 -23.62 L 348.8 -23.62 C 348.49 -23.62 348.27 -23.47 348.16 -23.19 Z M 346.3 -8.83 L 349.93 -20.09 L 353.57 -8.83 Z M 371.58 -22.71 L 378.56 -11.39 L 378.56 -0.48 C 378.56 -0.22 378.76 0 379.02 0 L 380.86 0 C 381.13 0 381.35 -0.22 381.35 -0.48 L 381.35 -11.49 L 388.27 -22.71 C 388.53 -23.16 388.28 -23.62 387.77 -23.62 L 385.93 -23.62 C 385.71 -23.62 385.55 -23.52 385.41 -23.33 L 379.95 -14.24 L 374.44 -23.33 C 374.31 -23.52 374.14 -23.62 373.92 -23.62 L 372.1 -23.62 C 371.58 -23.62 371.32 -23.16 371.58 -22.71 Z M 420.21 -23.16 L 420.21 -21.48 C 420.21 -21.22 420.43 -21.02 420.69 -21.02 L 426.57 -21.02 L 426.57 -0.48 C 426.57 -0.22 426.79 0 427.05 0 L 428.88 0 C 429.15 0 429.36 -0.22 429.36 -0.48 L 429.36 -21.02 L 435.24 -21.02 C 435.5 -21.02 435.72 -21.22 435.72 -21.48 L 435.72 -23.16 C 435.72 -23.42 435.5 -23.62 435.24 -23.62 L 420.69 -23.62 C 420.43 -23.62 420.21 -23.42 420.21 -23.16 Z M 450.1 -23.16 L 450.1 -0.48 C 450.1 -0.22 450.31 0 450.58 0 L 452.42 0 C 452.69 0 452.89 -0.22 452.89 -0.48 L 452.89 -11.19 L 464.31 -11.19 L 464.31 -0.48 C 464.31 -0.22 464.52 0 464.79 0 L 466.63 0 C 466.9 0 467.1 -0.22 467.1 -0.48 L 467.1 -23.16 C 467.1 -23.42 466.9 -23.62 466.63 -23.62 L 464.79 -23.62 C 464.52 -23.62 464.31 -23.42 464.31 -23.16 L 464.31 -13.73 L 452.89 -13.73 L 452.89 -23.16 C 452.89 -23.42 452.69 -23.62 452.42 -23.62 L 450.58 -23.62 C 450.31 -23.62 450.1 -23.42 450.1 -23.16 Z M 483.54 -22.41 L 483.54 -1.23 C 483.54 -0.55 484.08 0 484.76 0 L 495.95 0 C 496.22 0 496.43 -0.22 496.43 -0.48 L 496.43 -2.14 C 496.43 -2.41 496.22 -2.62 495.95 -2.62 L 486.32 -2.62 L 486.32 -11.19 L 493.68 -11.19 C 493.94 -11.19 494.14 -11.39 494.14 -11.65 L 494.14 -13.26 C 494.14 -13.53 493.94 -13.73 493.68 -13.73 L 486.32 -13.73 L 486.32 -21.02 L 495.95 -21.02 C 496.22 -21.02 496.43 -21.22 496.43 -21.48 L 496.43 -23.16 C 496.43 -23.42 496.22 -23.62 495.95 -23.62 L 484.76 -23.62 C 484.08 -23.62 483.54 -23.09 483.54 -22.41 Z M 511.34 -22.41 L 511.34 -0.48 C 511.34 -0.22 511.56 0 511.83 0 L 513.67 0 C 513.93 0 514.13 -0.22 514.13 -0.48 L 514.13 -9.93 L 516.79 -9.93 L 522.73 -0.3 C 522.83 -0.1 523 0 523.25 0 L 524.99 0 C 525.51 0 525.79 -0.5 525.52 -0.95 L 519.88 -10.06 C 521.47 -10.39 522.78 -11.19 523.83 -12.43 C 524.88 -13.68 525.39 -15.12 525.39 -16.77 C 525.39 -18.68 524.73 -20.29 523.38 -21.63 C 522.04 -22.96 520.39 -23.62 518.48 -23.62 L 512.57 -23.62 C 511.89 -23.62 511.34 -23.09 511.34 -22.41 Z M 518.28 -12.55 L 514.13 -12.55 L 514.13 -21.02 L 518.28 -21.02 C 519.51 -21.02 520.53 -20.62 521.34 -19.81 C 522.14 -18.99 522.53 -17.98 522.53 -16.73 C 522.53 -15.54 522.14 -14.54 521.32 -13.75 C 520.51 -12.95 519.5 -12.55 518.28 -12.55 Z M 546.14 -23.19 L 538.77 -0.75 C 538.64 -0.33 538.86 0 539.27 0 L 540.95 0 C 541.23 0 541.53 -0.18 541.59 -0.45 L 543.49 -6.36 L 552.34 -6.36 L 554.25 -0.45 C 554.36 -0.15 554.56 0 554.88 0 L 556.55 0 C 556.97 0 557.2 -0.33 557.07 -0.75 L 549.68 -23.19 C 549.56 -23.47 549.35 -23.62 549.03 -23.62 L 546.79 -23.62 C 546.48 -23.62 546.26 -23.47 546.14 -23.19 Z M 544.28 -8.83 L 547.92 -20.09 L 551.56 -8.83 Z M 571.33 -22.41 L 571.33 -0.48 C 571.33 -0.22 571.55 0 571.81 0 L 573.65 0 C 573.92 0 574.12 -0.22 574.12 -0.48 L 574.12 -9.01 L 578.27 -9.01 C 580.33 -9.01 582.09 -9.73 583.53 -11.16 C 584.98 -12.57 585.69 -14.29 585.69 -16.32 C 585.69 -18.34 584.98 -20.07 583.53 -21.5 C 582.09 -22.91 580.33 -23.62 578.27 -23.62 L 572.56 -23.62 C 571.88 -23.62 571.33 -23.09 571.33 -22.41 Z M 578.1 -11.62 L 574.12 -11.62 L 574.12 -21.02 L 578.1 -21.02 C 579.42 -21.02 580.53 -20.55 581.46 -19.64 C 582.37 -18.73 582.84 -17.61 582.84 -16.32 C 582.84 -15.02 582.37 -13.91 581.46 -13 C 580.53 -12.09 579.42 -11.62 578.1 -11.62 Z M 598.16 -22.71 L 605.13 -11.39 L 605.13 -0.48 C 605.13 -0.22 605.33 0 605.6 0 L 607.44 0 C 607.71 0 607.92 -0.22 607.92 -0.48 L 607.92 -11.49 L 614.84 -22.71 C 615.11 -23.16 614.86 -23.62 614.35 -23.62 L 612.5 -23.62 C 612.29 -23.62 612.12 -23.52 611.99 -23.33 L 606.53 -14.24 L 601.02 -23.33 C 600.88 -23.52 600.72 -23.62 600.5 -23.62 L 598.67 -23.62 C 598.16 -23.62 597.89 -23.16 598.16 -22.71 Z" stroke-linecap="round" />
</g>
</g>
</g>
<g transform="matrix(1 0 0 1 325 413.2681030420202)" id="tagline-471e4145-fad8-4662-aa63-fc92e0ba7580-logo"  >
<g style=""  paint-order="stroke"   >
		<g transform="matrix(1 0 0 1 0 0)" id="tagline-471e4145-fad8-4662-aa63-fc92e0ba7580-logo-path-0"  >
<path style="stroke: none; stroke-width: 0; stroke-dasharray: none; stroke-linecap: butt; stroke-dashoffset: 0; stroke-linejoin: miter; stroke-miterlimit: 4; fill: rgb(245,249,254); fill-rule: nonzero; opacity: 1;"  paint-order="stroke"  transform=" translate(0, 0)" d="" stroke-linecap="round" />
</g>
</g>
</g>
<g transform="matrix(1.9211538461538462 0 0 1.9211538461538462 641.5730948016828 830.4970889836118)" id="tagline-bcd19c1e-ed1c-4711-9400-5cf1cad16e76-logo"  >
<g style=""  paint-order="stroke"   >
		<g transform="matrix(1 0 0 1 0 0)" id="tagline-bcd19c1e-ed1c-4711-9400-5cf1cad16e76-logo-path-0"  >
<path style="stroke: none; stroke-width: 0; stroke-dasharray: none; stroke-linecap: butt; stroke-dashoffset: 0; stroke-linejoin: miter; stroke-miterlimit: 4; fill: rgb(4,20,36); fill-rule: nonzero; opacity: 1;"  paint-order="stroke"  transform=" translate(-233.54999999999998, 6.630000000000001)" d="M 1.2 -3.48 C 1.2 -2.34 1.59 -1.43 2.38 -0.74 C 3.16 -0.04 4.17 0.32 5.4 0.32 C 7.24 0.32 8.85 -0.54 9.84 -1.99 L 9.84 -0.34 C 9.84 -0.15 9.98 0 10.17 0 L 11.18 0 C 11.37 0 11.52 -0.15 11.52 -0.34 L 11.52 -9.55 C 11.52 -10.85 11.06 -11.91 10.16 -12.7 C 9.26 -13.5 8.06 -13.9 6.6 -13.9 C 4.49 -13.9 2.82 -12.96 1.9 -11.43 C 1.85 -11.33 1.83 -11.25 1.83 -11.18 C 1.83 -11.03 1.9 -10.9 2.04 -10.78 L 2.68 -10.35 C 2.8 -10.27 2.91 -10.22 3 -10.22 C 3.19 -10.22 3.35 -10.32 3.48 -10.54 C 4.08 -11.52 5.14 -12.12 6.55 -12.12 C 7.45 -12.12 8.2 -11.88 8.8 -11.41 C 9.4 -10.93 9.69 -10.31 9.69 -9.55 L 9.69 -9.36 C 9.69 -8.43 9.32 -7.97 8.38 -7.83 C 7.17 -7.66 6.14 -7.52 5.26 -7.39 C 2.72 -7.03 1.2 -5.59 1.2 -3.48 Z M 3 -3.55 C 3 -4.8 3.82 -5.58 5.4 -5.81 C 7.36 -6.11 8.82 -6.3 9.77 -6.41 L 9.77 -5.43 C 9.77 -4.83 9.61 -4.22 9.27 -3.61 C 8.93 -2.99 8.43 -2.46 7.77 -2.03 C 7.1 -1.59 6.38 -1.37 5.59 -1.37 C 4.82 -1.37 4.2 -1.57 3.71 -1.97 C 3.23 -2.37 3 -2.89 3 -3.55 Z M 22.05 -13.24 L 22.05 4.3 C 22.05 4.49 22.21 4.63 22.39 4.63 L 23.59 4.63 C 23.78 4.63 23.93 4.49 23.93 4.3 L 23.93 -1.05 C 24.91 -0.14 26.09 0.32 27.46 0.32 C 28.85 0.32 30.05 -0.18 31.03 -1.16 C 32 -2.13 32.5 -3.32 32.5 -4.7 L 32.5 -8.88 C 32.5 -10.27 32 -11.45 31.03 -12.43 C 30.05 -13.41 28.86 -13.9 27.48 -13.9 C 25.99 -13.9 24.79 -13.32 23.84 -12.19 L 23.84 -13.24 C 23.84 -13.43 23.68 -13.58 23.5 -13.58 L 22.39 -13.58 C 22.21 -13.58 22.05 -13.43 22.05 -13.24 Z M 23.93 -4.8 L 23.93 -8.79 C 23.93 -9.71 24.26 -10.51 24.91 -11.16 C 25.56 -11.8 26.36 -12.12 27.29 -12.12 C 28.22 -12.12 29.02 -11.79 29.66 -11.14 C 30.3 -10.5 30.62 -9.71 30.62 -8.79 L 30.62 -4.8 C 30.62 -3.88 30.29 -3.08 29.65 -2.44 C 29 -1.79 28.22 -1.46 27.29 -1.46 C 26.36 -1.46 25.56 -1.79 24.91 -2.44 C 24.26 -3.08 23.93 -3.88 23.93 -4.8 Z M 34.18 -17.88 L 34.18 -16.78 C 34.18 -16.59 34.32 -16.44 34.51 -16.44 L 36.75 -16.44 L 36.75 -0.87 C 36.75 -0.39 37.14 0 37.62 0 L 41.17 0 C 41.36 0 41.5 -0.15 41.5 -0.34 L 41.5 -1.44 C 41.5 -1.63 41.36 -1.78 41.17 -1.78 L 38.63 -1.78 L 38.63 -17.36 C 38.63 -17.84 38.24 -18.21 37.76 -18.21 L 34.51 -18.21 C 34.32 -18.21 34.18 -18.07 34.18 -17.88 Z M 43.64 -3.48 C 43.64 -2.34 44.04 -1.43 44.82 -0.74 C 45.61 -0.04 46.62 0.32 47.85 0.32 C 49.69 0.32 51.29 -0.54 52.29 -1.99 L 52.29 -0.34 C 52.29 -0.15 52.43 0 52.62 0 L 53.63 0 C 53.81 0 53.96 -0.15 53.96 -0.34 L 53.96 -9.55 C 53.96 -10.85 53.51 -11.91 52.61 -12.7 C 51.7 -13.5 50.51 -13.9 49.04 -13.9 C 46.93 -13.9 45.27 -12.96 44.34 -11.43 C 44.3 -11.33 44.27 -11.25 44.27 -11.18 C 44.27 -11.03 44.34 -10.9 44.48 -10.78 L 45.13 -10.35 C 45.25 -10.27 45.35 -10.22 45.45 -10.22 C 45.63 -10.22 45.8 -10.32 45.93 -10.54 C 46.52 -11.52 47.59 -12.12 49 -12.12 C 49.9 -12.12 50.65 -11.88 51.25 -11.41 C 51.84 -10.93 52.14 -10.31 52.14 -9.55 L 52.14 -9.36 C 52.14 -8.43 51.76 -7.97 50.82 -7.83 C 49.62 -7.66 48.59 -7.52 47.71 -7.39 C 45.16 -7.03 43.64 -5.59 43.64 -3.48 Z M 45.45 -3.55 C 45.45 -4.8 46.27 -5.58 47.85 -5.81 C 49.8 -6.11 51.27 -6.3 52.22 -6.41 L 52.22 -5.43 C 52.22 -4.83 52.05 -4.22 51.71 -3.61 C 51.38 -2.99 50.87 -2.46 50.21 -2.03 C 49.55 -1.59 48.82 -1.37 48.04 -1.37 C 47.26 -1.37 46.64 -1.57 46.16 -1.97 C 45.68 -2.37 45.45 -2.89 45.45 -3.55 Z M 57.43 -8.66 L 57.43 -4.92 C 57.43 -3.47 57.94 -2.24 58.96 -1.22 C 59.98 -0.2 61.21 0.32 62.65 0.32 C 64.04 0.32 65.24 -0.16 66.22 -1.13 C 66.32 -1.22 66.36 -1.34 66.36 -1.46 C 66.36 -1.62 66.32 -1.73 66.22 -1.83 C 66.05 -2.03 65.86 -2.21 65.67 -2.38 C 65.55 -2.47 65.44 -2.52 65.31 -2.52 C 65.16 -2.52 65.03 -2.46 64.92 -2.36 C 64.28 -1.76 63.53 -1.46 62.65 -1.46 C 61.72 -1.46 60.94 -1.79 60.29 -2.45 C 59.64 -3.09 59.31 -3.88 59.31 -4.8 L 59.31 -8.79 C 59.31 -9.71 59.64 -10.5 60.28 -11.14 C 60.93 -11.79 61.72 -12.12 62.65 -12.12 C 63.53 -12.12 64.28 -11.82 64.92 -11.23 C 65.03 -11.12 65.16 -11.06 65.31 -11.06 C 65.44 -11.06 65.55 -11.11 65.67 -11.2 C 65.85 -11.36 66.02 -11.54 66.22 -11.77 C 66.32 -11.88 66.36 -12 66.36 -12.12 C 66.36 -12.25 66.32 -12.36 66.22 -12.46 C 65.24 -13.42 64.04 -13.9 62.65 -13.9 C 61.21 -13.9 59.98 -13.39 58.96 -12.38 C 57.94 -11.36 57.43 -10.11 57.43 -8.66 Z M 69 -8.66 L 69 -5.23 C 69 -3.77 69.5 -2.54 70.52 -1.52 C 71.54 -0.5 72.77 0 74.21 0 L 77.68 0 C 77.87 0 78.02 -0.15 78.02 -0.34 L 78.02 -1.44 C 78.02 -1.63 77.87 -1.78 77.68 -1.78 L 74.21 -1.78 C 73.29 -1.78 72.49 -2.11 71.85 -2.75 C 71.2 -3.4 70.88 -4.18 70.88 -5.11 L 70.88 -6.16 L 78.55 -6.16 C 79.03 -6.16 79.42 -6.55 79.42 -7.03 L 79.42 -8.66 C 79.48 -11.51 77.03 -13.96 74.21 -13.9 C 72.77 -13.9 71.54 -13.39 70.52 -12.38 C 69.5 -11.36 69 -10.11 69 -8.66 Z M 70.88 -7.9 L 70.88 -8.79 C 70.88 -9.71 71.2 -10.5 71.85 -11.14 C 72.49 -11.79 73.29 -12.12 74.21 -12.12 C 75.14 -12.12 75.93 -11.79 76.57 -11.14 C 77.21 -10.5 77.54 -9.71 77.54 -8.79 L 77.54 -7.9 Z M 88.83 -8.66 L 88.83 -4.92 C 88.83 -3.47 89.33 -2.24 90.35 -1.22 C 91.37 -0.2 92.6 0.32 94.04 0.32 C 96.86 0.39 99.3 -2.07 99.25 -4.92 L 99.25 -8.66 C 99.3 -11.51 96.86 -13.96 94.04 -13.9 C 92.6 -13.9 91.37 -13.39 90.35 -12.38 C 89.33 -11.36 88.83 -10.11 88.83 -8.66 Z M 90.7 -4.8 L 90.7 -8.79 C 90.7 -9.71 91.03 -10.5 91.68 -11.14 C 92.32 -11.79 93.12 -12.12 94.04 -12.12 C 94.97 -12.12 95.75 -11.79 96.4 -11.14 C 97.04 -10.5 97.37 -9.71 97.37 -8.79 L 97.37 -4.8 C 97.37 -3.88 97.04 -3.08 96.4 -2.44 C 95.75 -1.79 94.97 -1.46 94.04 -1.46 C 93.12 -1.46 92.33 -1.79 91.69 -2.45 C 91.03 -3.09 90.7 -3.88 90.7 -4.8 Z M 101.4 -13.24 L 101.4 -12.14 C 101.4 -11.95 101.55 -11.81 101.74 -11.81 L 103.56 -11.81 L 103.56 -0.34 C 103.56 -0.15 103.71 0 103.9 0 L 105.09 0 C 105.28 0 105.43 -0.15 105.43 -0.34 L 105.43 -11.81 L 108.7 -11.81 C 108.89 -11.81 109.03 -11.95 109.03 -12.14 L 109.03 -13.24 C 109.03 -13.43 108.89 -13.58 108.7 -13.58 L 105.43 -13.58 L 105.43 -14.64 C 105.43 -15.75 106.16 -16.51 107.24 -16.51 L 109.17 -16.51 C 109.36 -16.51 109.51 -16.66 109.51 -16.85 L 109.51 -17.88 C 109.51 -18.07 109.36 -18.21 109.17 -18.21 L 107.26 -18.21 C 106.1 -18.21 105.2 -17.86 104.54 -17.17 C 103.89 -16.48 103.56 -15.6 103.56 -14.54 L 103.56 -13.58 L 101.74 -13.58 C 101.55 -13.58 101.4 -13.43 101.4 -13.24 Z M 118.85 -17.88 L 118.85 -0.34 C 118.85 -0.15 119 0 119.19 0 L 120.39 0 C 120.57 0 120.73 -0.15 120.73 -0.34 L 120.73 -8.18 C 120.73 -9.41 121.05 -10.38 121.72 -11.09 C 122.38 -11.79 123.23 -12.14 124.3 -12.14 C 126.12 -12.14 127.28 -11.03 127.28 -9 L 127.28 -0.34 C 127.28 -0.15 127.43 0 127.62 0 L 128.81 0 C 129 0 129.15 -0.15 129.15 -0.34 L 129.15 -9.36 C 129.15 -10.71 128.73 -11.81 127.9 -12.64 C 127.07 -13.48 125.96 -13.9 124.59 -13.9 C 122.94 -13.9 121.56 -13.22 120.73 -11.91 L 120.73 -17.88 C 120.73 -18.07 120.57 -18.21 120.39 -18.21 L 119.19 -18.21 C 119 -18.21 118.85 -18.07 118.85 -17.88 Z M 132.5 -8.66 L 132.5 -5.23 C 132.5 -3.77 133.01 -2.54 134.03 -1.52 C 135.05 -0.5 136.28 0 137.72 0 L 141.19 0 C 141.38 0 141.53 -0.15 141.53 -0.34 L 141.53 -1.44 C 141.53 -1.63 141.38 -1.78 141.19 -1.78 L 137.72 -1.78 C 136.79 -1.78 136 -2.11 135.35 -2.75 C 134.71 -3.4 134.38 -4.18 134.38 -5.11 L 134.38 -6.16 L 142.05 -6.16 C 142.54 -6.16 142.92 -6.55 142.92 -7.03 L 142.92 -8.66 C 142.98 -11.51 140.53 -13.96 137.72 -13.9 C 136.28 -13.9 135.05 -13.39 134.03 -12.38 C 133.01 -11.36 132.5 -10.11 132.5 -8.66 Z M 134.38 -7.9 L 134.38 -8.79 C 134.38 -9.71 134.71 -10.5 135.35 -11.14 C 136 -11.79 136.79 -12.12 137.72 -12.12 C 138.64 -12.12 139.43 -11.79 140.07 -11.14 C 140.72 -10.5 141.05 -9.71 141.05 -8.79 L 141.05 -7.9 Z M 145.27 -3.48 C 145.27 -2.34 145.66 -1.43 146.45 -0.74 C 147.23 -0.04 148.24 0.32 149.47 0.32 C 151.31 0.32 152.92 -0.54 153.91 -1.99 L 153.91 -0.34 C 153.91 -0.15 154.05 0 154.24 0 L 155.25 0 C 155.44 0 155.59 -0.15 155.59 -0.34 L 155.59 -9.55 C 155.59 -10.85 155.13 -11.91 154.23 -12.7 C 153.33 -13.5 152.13 -13.9 150.67 -13.9 C 148.56 -13.9 146.89 -12.96 145.97 -11.43 C 145.92 -11.33 145.9 -11.25 145.9 -11.18 C 145.9 -11.03 145.97 -10.9 146.11 -10.78 L 146.75 -10.35 C 146.87 -10.27 146.98 -10.22 147.07 -10.22 C 147.26 -10.22 147.42 -10.32 147.55 -10.54 C 148.15 -11.52 149.21 -12.12 150.62 -12.12 C 151.52 -12.12 152.27 -11.88 152.87 -11.41 C 153.47 -10.93 153.76 -10.31 153.76 -9.55 L 153.76 -9.36 C 153.76 -8.43 153.39 -7.97 152.45 -7.83 C 151.24 -7.66 150.21 -7.52 149.33 -7.39 C 146.79 -7.03 145.27 -5.59 145.27 -3.48 Z M 147.07 -3.55 C 147.07 -4.8 147.89 -5.58 149.47 -5.81 C 151.43 -6.11 152.89 -6.3 153.84 -6.41 L 153.84 -5.43 C 153.84 -4.83 153.68 -4.22 153.34 -3.61 C 153 -2.99 152.5 -2.46 151.84 -2.03 C 151.17 -1.59 150.45 -1.37 149.66 -1.37 C 148.89 -1.37 148.27 -1.57 147.79 -1.97 C 147.3 -2.37 147.07 -2.89 147.07 -3.55 Z M 157.86 -17.88 L 157.86 -16.78 C 157.86 -16.59 158 -16.44 158.19 -16.44 L 160.43 -16.44 L 160.43 -0.87 C 160.43 -0.39 160.82 0 161.3 0 L 164.85 0 C 165.04 0 165.18 -0.15 165.18 -0.34 L 165.18 -1.44 C 165.18 -1.63 165.04 -1.78 164.85 -1.78 L 162.3 -1.78 L 162.3 -17.36 C 162.3 -17.84 161.92 -18.21 161.44 -18.21 L 158.19 -18.21 C 158 -18.21 157.86 -18.07 157.86 -17.88 Z M 166.85 -13.24 L 166.85 -12.14 C 166.85 -11.95 167 -11.81 167.19 -11.81 L 169.69 -11.81 L 169.69 -0.87 C 169.69 -0.39 170.07 0 170.55 0 L 174.04 0 C 174.22 0 174.36 -0.15 174.36 -0.34 L 174.36 -1.44 C 174.36 -1.63 174.22 -1.78 174.04 -1.78 L 171.56 -1.78 L 171.56 -12.71 C 171.56 -13.2 171.18 -13.58 170.7 -13.58 L 167.19 -13.58 C 167 -13.58 166.85 -13.43 166.85 -13.24 Z M 169.71 -17.88 L 169.71 -15.8 C 169.71 -15.61 169.86 -15.46 170.05 -15.46 L 171.2 -15.46 C 171.39 -15.46 171.54 -15.61 171.54 -15.8 L 171.54 -17.88 C 171.54 -18.07 171.39 -18.21 171.2 -18.21 L 170.05 -18.21 C 169.86 -18.21 169.71 -18.07 169.71 -17.88 Z M 177.35 -13.24 L 177.35 -0.36 C 177.35 -0.18 177.5 -0.02 177.69 -0.02 L 178.89 -0.02 C 179.07 -0.02 179.23 -0.18 179.23 -0.36 L 179.23 -8.2 C 179.23 -9.43 179.55 -10.41 180.22 -11.11 C 180.88 -11.81 181.73 -12.16 182.8 -12.16 C 184.62 -12.16 185.78 -11.05 185.78 -9.02 L 185.78 -0.36 C 185.78 -0.18 185.93 -0.02 186.12 -0.02 L 187.31 -0.02 C 187.5 -0.02 187.65 -0.18 187.65 -0.36 L 187.65 -9.39 C 187.65 -10.73 187.23 -11.84 186.4 -12.67 C 185.57 -13.5 184.46 -13.92 183.09 -13.92 C 181.44 -13.92 180.06 -13.24 179.23 -11.93 L 179.23 -13.24 C 179.23 -13.43 179.07 -13.58 178.89 -13.58 L 177.69 -13.58 C 177.5 -13.58 177.35 -13.43 177.35 -13.24 Z M 191 1.61 C 191 2.34 191.24 2.98 191.71 3.49 C 192.63 4.51 194.17 4.95 196.14 4.95 C 197.24 4.95 198.21 4.8 199.07 4.52 C 200.75 3.95 201.9 2.68 201.9 0.91 C 201.9 -0.18 201.5 -0.88 200.87 -1.29 C 200.4 -1.58 200.06 -1.73 199.45 -1.86 C 198.84 -1.99 198.53 -2.02 197.92 -2.06 C 197.71 -2.07 197.41 -2.1 197.04 -2.13 C 196.65 -2.17 196.37 -2.19 196.2 -2.2 C 196.01 -2.21 195.77 -2.24 195.49 -2.27 C 194.92 -2.32 194.68 -2.37 194.32 -2.44 C 193.95 -2.51 193.71 -2.58 193.52 -2.68 C 193.21 -2.85 193.04 -3.12 193.04 -3.5 C 193.04 -4.08 193.44 -4.63 194.14 -4.95 C 194.81 -4.73 195.45 -4.63 196.04 -4.63 C 197.44 -4.63 198.62 -5.06 199.57 -5.92 C 200.52 -6.77 200.99 -7.9 200.99 -9.27 C 200.99 -10.25 200.74 -11.1 200.25 -11.81 L 202.66 -11.81 C 202.85 -11.81 203 -11.95 203 -12.14 L 203 -13.24 C 203 -13.43 202.85 -13.58 202.66 -13.58 L 197.92 -13.58 C 197.27 -13.79 196.64 -13.9 196.04 -13.9 C 194.65 -13.9 193.48 -13.48 192.53 -12.62 C 191.58 -11.77 191.1 -10.64 191.1 -9.27 C 191.1 -7.77 191.75 -6.5 192.83 -5.66 C 191.88 -5.05 191.27 -4.1 191.27 -3.12 C 191.27 -2.32 191.64 -1.8 192.42 -1.28 C 191.54 -0.61 191 0.48 191 1.61 Z M 192.74 1.2 C 192.74 0.48 193.13 -0.3 193.77 -0.77 C 194.1 -0.71 194.41 -0.66 194.73 -0.62 C 195.06 -0.59 195.98 -0.49 197.51 -0.36 C 198.3 -0.3 198.64 -0.27 199.15 -0.14 C 199.86 0.06 200.1 0.39 200.14 1.1 C 200.12 2.66 198.45 3.32 196.36 3.29 C 194.48 3.29 192.74 2.77 192.74 1.2 Z M 193.78 -11.41 L 193.78 -11.41 C 194.34 -11.96 195.09 -12.23 196.04 -12.23 C 196.99 -12.23 197.74 -11.96 198.32 -11.41 C 198.88 -10.86 199.16 -10.15 199.16 -9.27 C 199.16 -8.39 198.88 -7.68 198.32 -7.13 C 197.74 -6.57 196.99 -6.29 196.04 -6.29 C 195.09 -6.29 194.34 -6.57 193.78 -7.13 C 193.21 -7.68 192.93 -8.39 192.93 -9.27 C 192.93 -10.15 193.21 -10.86 193.78 -11.41 Z M 210.91 -13.24 L 210.91 -12.14 C 210.91 -11.95 211.07 -11.81 211.25 -11.81 L 213.07 -11.81 L 213.07 -0.34 C 213.07 -0.15 213.22 0 213.41 0 L 214.61 0 C 214.79 0 214.95 -0.15 214.95 -0.34 L 214.95 -11.81 L 218.21 -11.81 C 218.4 -11.81 218.54 -11.95 218.54 -12.14 L 218.54 -13.24 C 218.54 -13.43 218.4 -13.58 218.21 -13.58 L 214.95 -13.58 L 214.95 -14.64 C 214.95 -15.75 215.67 -16.51 216.75 -16.51 L 218.68 -16.51 C 218.87 -16.51 219.02 -16.66 219.02 -16.85 L 219.02 -17.88 C 219.02 -18.07 218.87 -18.21 218.68 -18.21 L 216.77 -18.21 C 215.61 -18.21 214.71 -17.86 214.05 -17.17 C 213.4 -16.48 213.07 -15.6 213.07 -14.54 L 213.07 -13.58 L 211.25 -13.58 C 211.07 -13.58 210.91 -13.43 210.91 -13.24 Z M 220.93 -8.66 L 220.93 -4.92 C 220.93 -3.47 221.44 -2.24 222.46 -1.22 C 223.48 -0.2 224.71 0.32 226.15 0.32 C 228.96 0.39 231.41 -2.07 231.35 -4.92 L 231.35 -8.66 C 231.41 -11.51 228.96 -13.96 226.15 -13.9 C 224.71 -13.9 223.48 -13.39 222.46 -12.38 C 221.44 -11.36 220.93 -10.11 220.93 -8.66 Z M 222.81 -4.8 L 222.81 -8.79 C 222.81 -9.71 223.14 -10.5 223.78 -11.14 C 224.43 -11.79 225.22 -12.12 226.15 -12.12 C 227.07 -12.12 227.86 -11.79 228.5 -11.14 C 229.15 -10.5 229.48 -9.71 229.48 -8.79 L 229.48 -4.8 C 229.48 -3.88 229.15 -3.08 228.5 -2.44 C 227.86 -1.79 227.07 -1.46 226.15 -1.46 C 225.22 -1.46 224.44 -1.79 223.79 -2.45 C 223.14 -3.09 222.81 -3.88 222.81 -4.8 Z M 233.74 -1.44 L 233.74 -0.34 C 233.74 -0.15 233.89 0 234.08 0 L 240.73 0 C 240.91 0 241.07 -0.15 241.07 -0.34 L 241.07 -1.44 C 241.07 -1.63 240.91 -1.78 240.73 -1.78 L 237.95 -1.78 L 237.95 -9.41 L 239.37 -10.54 C 240.07 -11.1 240.6 -11.46 240.96 -11.64 C 241.31 -11.8 241.69 -11.88 242.07 -11.88 L 242.6 -11.88 C 242.79 -11.88 242.94 -12.02 242.94 -12.21 L 242.94 -13.39 C 242.94 -13.58 242.8 -13.72 242.6 -13.72 L 241.89 -13.72 C 241.49 -13.72 241.11 -13.65 240.75 -13.5 C 240.39 -13.35 239.92 -13.04 239.34 -12.6 L 237.95 -11.52 L 237.95 -12.71 C 237.95 -13.2 237.56 -13.58 237.08 -13.58 L 234.08 -13.58 C 233.89 -13.58 233.74 -13.43 233.74 -13.24 L 233.74 -12.21 C 233.74 -12.02 233.89 -11.88 234.08 -11.88 L 236.07 -11.88 L 236.07 -1.78 L 234.08 -1.78 C 233.89 -1.78 233.74 -1.63 233.74 -1.44 Z M 250.75 -13.05 L 255.53 0.14 L 254.13 4.13 C 254.04 4.41 254.23 4.63 254.52 4.63 L 255.46 4.63 C 255.68 4.63 255.83 4.52 255.91 4.32 L 262.05 -13.05 C 262.15 -13.35 261.98 -13.58 261.69 -13.58 L 260.64 -13.58 C 260.41 -13.58 260.26 -13.48 260.18 -13.28 L 256.44 -2.52 L 252.67 -13.28 C 252.59 -13.48 252.43 -13.58 252.21 -13.58 L 251.11 -13.58 C 250.82 -13.58 250.65 -13.35 250.75 -13.05 Z M 264.23 -8.66 L 264.23 -4.92 C 264.23 -3.47 264.74 -2.24 265.76 -1.22 C 266.78 -0.2 268.01 0.32 269.45 0.32 C 272.26 0.39 274.71 -2.07 274.65 -4.92 L 274.65 -8.66 C 274.71 -11.51 272.26 -13.96 269.45 -13.9 C 268.01 -13.9 266.78 -13.39 265.76 -12.38 C 264.74 -11.36 264.23 -10.11 264.23 -8.66 Z M 266.11 -4.8 L 266.11 -8.79 C 266.11 -9.71 266.44 -10.5 267.08 -11.14 C 267.73 -11.79 268.52 -12.12 269.45 -12.12 C 270.38 -12.12 271.16 -11.79 271.8 -11.14 C 272.45 -10.5 272.78 -9.71 272.78 -8.79 L 272.78 -4.8 C 272.78 -3.88 272.45 -3.08 271.8 -2.44 C 271.16 -1.79 270.38 -1.46 269.45 -1.46 C 268.52 -1.46 267.74 -1.79 267.09 -2.45 C 266.44 -3.09 266.11 -3.88 266.11 -4.8 Z M 278.38 -13.24 L 278.38 -4.22 C 278.38 -2.87 278.8 -1.77 279.63 -0.94 C 280.46 -0.11 281.57 0.32 282.94 0.32 C 284.59 0.32 285.96 -0.36 286.79 -1.68 L 286.79 -0.34 C 286.79 -0.15 286.95 0 287.13 0 L 288.34 0 C 288.53 0 288.67 -0.15 288.67 -0.34 L 288.67 -13.24 C 288.67 -13.43 288.53 -13.58 288.34 -13.58 L 287.13 -13.58 C 286.95 -13.58 286.79 -13.43 286.79 -13.24 L 286.79 -5.4 C 286.79 -4.17 286.46 -3.2 285.81 -2.5 C 285.14 -1.79 284.29 -1.44 283.22 -1.44 C 281.4 -1.44 280.24 -2.55 280.24 -4.58 L 280.24 -13.24 C 280.24 -13.43 280.1 -13.58 279.91 -13.58 L 278.71 -13.58 C 278.52 -13.58 278.38 -13.43 278.38 -13.24 Z M 291.79 -13.24 L 291.79 -12.16 C 291.79 -11.98 291.94 -11.84 292.13 -11.84 L 293.71 -11.84 L 293.71 -3.67 C 293.71 -2.61 294.04 -1.73 294.69 -1.04 C 295.34 -0.35 296.24 0 297.4 0 L 299.8 0 C 299.99 0 300.14 -0.15 300.14 -0.34 L 300.14 -1.44 C 300.14 -1.63 299.99 -1.78 299.8 -1.78 L 297.62 -1.8 C 296.4 -1.84 295.58 -2.66 295.58 -3.89 L 295.58 -11.81 L 299.8 -11.81 C 299.99 -11.81 300.14 -11.95 300.14 -12.14 L 300.14 -13.24 C 300.14 -13.43 299.99 -13.58 299.8 -13.58 L 295.58 -13.58 L 295.58 -16.1 C 295.58 -16.29 295.43 -16.44 295.24 -16.44 L 294.04 -16.44 C 293.85 -16.44 293.71 -16.29 293.71 -16.1 L 293.71 -13.58 L 292.13 -13.58 C 291.94 -13.58 291.79 -13.43 291.79 -13.24 Z M 303.61 -17.88 L 303.61 -0.34 C 303.61 -0.15 303.76 0 303.95 0 L 305.14 0 C 305.33 0 305.48 -0.15 305.48 -0.34 L 305.48 -8.18 C 305.48 -9.41 305.81 -10.38 306.48 -11.09 C 307.14 -11.79 307.99 -12.14 309.06 -12.14 C 310.88 -12.14 312.04 -11.03 312.04 -9 L 312.04 -0.34 C 312.04 -0.15 312.19 0 312.38 0 L 313.57 0 C 313.76 0 313.91 -0.15 313.91 -0.34 L 313.91 -9.36 C 313.91 -10.71 313.49 -11.81 312.66 -12.64 C 311.82 -13.48 310.72 -13.9 309.35 -13.9 C 307.7 -13.9 306.32 -13.22 305.48 -11.91 L 305.48 -17.88 C 305.48 -18.07 305.33 -18.21 305.14 -18.21 L 303.95 -18.21 C 303.76 -18.21 303.61 -18.07 303.61 -17.88 Z M 323.37 -3.48 C 323.37 -2.34 323.77 -1.43 324.55 -0.74 C 325.34 -0.04 326.34 0.32 327.57 0.32 C 329.41 0.32 331.02 -0.54 332.02 -1.99 L 332.02 -0.34 C 332.02 -0.15 332.16 0 332.34 0 L 333.35 0 C 333.54 0 333.69 -0.15 333.69 -0.34 L 333.69 -9.55 C 333.69 -10.85 333.23 -11.91 332.33 -12.7 C 331.43 -13.5 330.23 -13.9 328.77 -13.9 C 326.66 -13.9 325 -12.96 324.07 -11.43 C 324.02 -11.33 324 -11.25 324 -11.18 C 324 -11.03 324.07 -10.9 324.21 -10.78 L 324.86 -10.35 C 324.97 -10.27 325.08 -10.22 325.17 -10.22 C 325.36 -10.22 325.52 -10.32 325.65 -10.54 C 326.25 -11.52 327.32 -12.12 328.72 -12.12 C 329.63 -12.12 330.38 -11.88 330.97 -11.41 C 331.57 -10.93 331.86 -10.31 331.86 -9.55 L 331.86 -9.36 C 331.86 -8.43 331.49 -7.97 330.55 -7.83 C 329.34 -7.66 328.31 -7.52 327.43 -7.39 C 324.89 -7.03 323.37 -5.59 323.37 -3.48 Z M 325.17 -3.55 C 325.17 -4.8 325.99 -5.58 327.57 -5.81 C 329.53 -6.11 331 -6.3 331.95 -6.41 L 331.95 -5.43 C 331.95 -4.83 331.78 -4.22 331.44 -3.61 C 331.1 -2.99 330.6 -2.46 329.94 -2.03 C 329.27 -1.59 328.55 -1.37 327.76 -1.37 C 326.99 -1.37 326.37 -1.57 325.89 -1.97 C 325.41 -2.37 325.17 -2.89 325.17 -3.55 Z M 337.76 -13.24 L 337.76 -0.36 C 337.76 -0.18 337.91 -0.02 338.1 -0.02 L 339.29 -0.02 C 339.48 -0.02 339.63 -0.18 339.63 -0.36 L 339.63 -8.2 C 339.63 -9.43 339.96 -10.41 340.63 -11.11 C 341.29 -11.81 342.14 -12.16 343.21 -12.16 C 345.02 -12.16 346.18 -11.05 346.18 -9.02 L 346.18 -0.36 C 346.18 -0.18 346.34 -0.02 346.52 -0.02 L 347.72 -0.02 C 347.91 -0.02 348.06 -0.18 348.06 -0.36 L 348.06 -9.39 C 348.06 -10.73 347.64 -11.84 346.8 -12.67 C 345.97 -13.5 344.87 -13.92 343.5 -13.92 C 341.85 -13.92 340.46 -13.24 339.63 -11.93 L 339.63 -13.24 C 339.63 -13.43 339.48 -13.58 339.29 -13.58 L 338.1 -13.58 C 337.91 -13.58 337.76 -13.43 337.76 -13.24 Z M 351.53 -8.88 L 351.53 -4.7 C 351.53 -3.32 352.02 -2.13 353 -1.16 C 353.98 -0.18 355.16 0.32 356.54 0.32 C 358.03 0.32 359.24 -0.26 360.19 -1.39 L 360.19 -0.34 C 360.19 -0.15 360.34 0 360.53 0 L 361.63 0 C 361.82 0 361.97 -0.15 361.97 -0.34 L 361.97 -17.88 C 361.97 -18.07 361.82 -18.21 361.63 -18.21 L 360.43 -18.21 C 360.25 -18.21 360.09 -18.07 360.09 -17.88 L 360.09 -12.53 C 359.11 -13.44 357.94 -13.9 356.57 -13.9 C 355.17 -13.9 353.98 -13.41 353 -12.43 C 352.02 -11.46 351.53 -10.28 351.53 -8.88 Z M 353.4 -4.8 L 353.4 -8.79 C 353.4 -9.71 353.73 -10.5 354.38 -11.14 C 355.02 -11.79 355.82 -12.12 356.74 -12.12 C 357.68 -12.12 358.48 -11.8 359.12 -11.16 C 359.77 -10.51 360.09 -9.71 360.09 -8.79 L 360.09 -4.8 C 360.09 -3.88 359.77 -3.08 359.12 -2.44 C 358.48 -1.79 357.68 -1.46 356.74 -1.46 C 355.82 -1.46 355.03 -1.79 354.39 -2.45 C 353.73 -3.09 353.4 -3.88 353.4 -4.8 Z M 371.55 -13.24 L 371.55 -12.14 C 371.55 -11.95 371.71 -11.81 371.89 -11.81 L 373.71 -11.81 L 373.71 -0.34 C 373.71 -0.15 373.86 0 374.05 0 L 375.25 0 C 375.43 0 375.59 -0.15 375.59 -0.34 L 375.59 -11.81 L 378.86 -11.81 C 379.04 -11.81 379.18 -11.95 379.18 -12.14 L 379.18 -13.24 C 379.18 -13.43 379.04 -13.58 378.86 -13.58 L 375.59 -13.58 L 375.59 -14.64 C 375.59 -15.75 376.31 -16.51 377.39 -16.51 L 379.32 -16.51 C 379.51 -16.51 379.66 -16.66 379.66 -16.85 L 379.66 -17.88 C 379.66 -18.07 379.51 -18.21 379.32 -18.21 L 377.41 -18.21 C 376.25 -18.21 375.35 -17.86 374.7 -17.17 C 374.04 -16.48 373.71 -15.6 373.71 -14.54 L 373.71 -13.58 L 371.89 -13.58 C 371.71 -13.58 371.55 -13.43 371.55 -13.24 Z M 381.34 -3.48 C 381.34 -2.34 381.74 -1.43 382.52 -0.74 C 383.31 -0.04 384.32 0.32 385.55 0.32 C 387.39 0.32 388.99 -0.54 389.99 -1.99 L 389.99 -0.34 C 389.99 -0.15 390.13 0 390.32 0 L 391.32 0 C 391.51 0 391.66 -0.15 391.66 -0.34 L 391.66 -9.55 C 391.66 -10.85 391.21 -11.91 390.3 -12.7 C 389.4 -13.5 388.21 -13.9 386.74 -13.9 C 384.63 -13.9 382.97 -12.96 382.04 -11.43 C 382 -11.33 381.97 -11.25 381.97 -11.18 C 381.97 -11.03 382.04 -10.9 382.18 -10.78 L 382.83 -10.35 C 382.95 -10.27 383.05 -10.22 383.14 -10.22 C 383.33 -10.22 383.5 -10.32 383.63 -10.54 C 384.22 -11.52 385.29 -12.12 386.7 -12.12 C 387.6 -12.12 388.35 -11.88 388.95 -11.41 C 389.54 -10.93 389.84 -10.31 389.84 -9.55 L 389.84 -9.36 C 389.84 -8.43 389.46 -7.97 388.52 -7.83 C 387.32 -7.66 386.29 -7.52 385.41 -7.39 C 382.86 -7.03 381.34 -5.59 381.34 -3.48 Z M 383.14 -3.55 C 383.14 -4.8 383.96 -5.58 385.55 -5.81 C 387.5 -6.11 388.97 -6.3 389.92 -6.41 L 389.92 -5.43 C 389.92 -4.83 389.75 -4.22 389.41 -3.61 C 389.07 -2.99 388.57 -2.46 387.91 -2.03 C 387.25 -1.59 386.52 -1.37 385.73 -1.37 C 384.96 -1.37 384.34 -1.57 383.86 -1.97 C 383.38 -2.37 383.14 -2.89 383.14 -3.55 Z M 395.73 -13.24 L 395.73 -0.34 C 395.73 -0.15 395.88 0 396.07 0 L 397.27 0 C 397.45 0 397.61 -0.15 397.61 -0.34 L 397.61 -8.18 C 397.61 -9.41 397.91 -10.38 398.53 -11.09 C 399.15 -11.79 399.95 -12.14 400.95 -12.14 C 402.76 -12.14 403.92 -11.03 403.92 -9 L 403.92 -0.34 C 403.92 -0.15 404.06 0 404.25 0 L 405.46 0 C 405.64 0 405.79 -0.15 405.79 -0.34 L 405.79 -8.16 C 405.79 -9.39 406.09 -10.36 406.71 -11.06 C 407.33 -11.77 408.13 -12.12 409.13 -12.12 C 410.94 -12.12 412.1 -11 412.1 -8.98 L 412.1 -0.34 C 412.1 -0.15 412.25 0 412.44 0 L 413.64 0 C 413.82 0 413.98 -0.15 413.98 -0.34 L 413.98 -9.34 C 413.98 -10.69 413.55 -11.79 412.72 -12.62 C 411.89 -13.45 410.79 -13.88 409.42 -13.88 C 407.63 -13.88 406.13 -12.95 405.46 -11.26 C 404.8 -12.9 403.24 -13.9 401.23 -13.9 C 399.68 -13.9 398.39 -13.23 397.61 -11.95 L 397.61 -13.24 C 397.61 -13.43 397.45 -13.58 397.27 -13.58 L 396.07 -13.58 C 395.88 -13.58 395.73 -13.43 395.73 -13.24 Z M 416.85 -13.24 L 416.85 -12.14 C 416.85 -11.95 417 -11.81 417.19 -11.81 L 419.68 -11.81 L 419.68 -0.87 C 419.68 -0.39 420.07 0 420.55 0 L 424.03 0 C 424.22 0 424.36 -0.15 424.36 -0.34 L 424.36 -1.44 C 424.36 -1.63 424.22 -1.78 424.03 -1.78 L 421.56 -1.78 L 421.56 -12.71 C 421.56 -13.2 421.17 -13.58 420.69 -13.58 L 417.19 -13.58 C 417 -13.58 416.85 -13.43 416.85 -13.24 Z M 419.71 -17.88 L 419.71 -15.8 C 419.71 -15.61 419.86 -15.46 420.05 -15.46 L 421.2 -15.46 C 421.38 -15.46 421.54 -15.61 421.54 -15.8 L 421.54 -17.88 C 421.54 -18.07 421.38 -18.21 421.2 -18.21 L 420.05 -18.21 C 419.86 -18.21 419.71 -18.07 419.71 -17.88 Z M 425.32 -17.88 L 425.32 -16.78 C 425.32 -16.59 425.46 -16.44 425.65 -16.44 L 427.89 -16.44 L 427.89 -0.87 C 427.89 -0.39 428.27 0 428.75 0 L 432.3 0 C 432.49 0 432.63 -0.15 432.63 -0.34 L 432.63 -1.44 C 432.63 -1.63 432.49 -1.78 432.3 -1.78 L 429.76 -1.78 L 429.76 -17.36 C 429.76 -17.84 429.38 -18.21 428.89 -18.21 L 425.65 -18.21 C 425.46 -18.21 425.32 -18.07 425.32 -17.88 Z M 434.31 -13.24 L 434.31 -12.14 C 434.31 -11.95 434.46 -11.81 434.65 -11.81 L 437.14 -11.81 L 437.14 -0.87 C 437.14 -0.39 437.53 0 438.01 0 L 441.49 0 C 441.68 0 441.82 -0.15 441.82 -0.34 L 441.82 -1.44 C 441.82 -1.63 441.68 -1.78 441.49 -1.78 L 439.02 -1.78 L 439.02 -12.71 C 439.02 -13.2 438.63 -13.58 438.15 -13.58 L 434.65 -13.58 C 434.46 -13.58 434.31 -13.43 434.31 -13.24 Z M 437.17 -17.88 L 437.17 -15.8 C 437.17 -15.61 437.32 -15.46 437.51 -15.46 L 438.66 -15.46 C 438.84 -15.46 439 -15.61 439 -15.8 L 439 -17.88 C 439 -18.07 438.84 -18.21 438.66 -18.21 L 437.51 -18.21 C 437.32 -18.21 437.17 -18.07 437.17 -17.88 Z M 443.98 -8.66 L 443.98 -5.23 C 443.98 -3.77 444.48 -2.54 445.5 -1.52 C 446.52 -0.5 447.75 0 449.19 0 L 452.66 0 C 452.85 0 453 -0.15 453 -0.34 L 453 -1.44 C 453 -1.63 452.85 -1.78 452.66 -1.78 L 449.19 -1.78 C 448.27 -1.78 447.47 -2.11 446.82 -2.75 C 446.18 -3.4 445.85 -4.18 445.85 -5.11 L 445.85 -6.16 L 453.53 -6.16 C 454.01 -6.16 454.39 -6.55 454.39 -7.03 L 454.39 -8.66 C 454.45 -11.51 452 -13.96 449.19 -13.9 C 447.75 -13.9 446.52 -13.39 445.5 -12.38 C 444.48 -11.36 443.98 -10.11 443.98 -8.66 Z M 445.85 -7.9 L 445.85 -8.79 C 445.85 -9.71 446.18 -10.5 446.82 -11.14 C 447.47 -11.79 448.27 -12.12 449.19 -12.12 C 450.12 -12.12 450.9 -11.79 451.55 -11.14 C 452.19 -10.5 452.52 -9.71 452.52 -8.79 L 452.52 -7.9 Z M 457.61 -2.29 L 457.1 -1.28 C 457.04 -1.1 457.09 -0.97 457.22 -0.89 C 458.24 -0.18 459.71 0.23 461.2 0.23 C 462.63 0.23 463.77 -0.12 464.63 -0.83 C 465.48 -1.54 465.9 -2.51 465.9 -3.74 C 465.9 -4.27 465.8 -4.75 465.66 -5.12 C 465.5 -5.5 465.19 -5.87 464.94 -6.12 C 464.7 -6.36 464.2 -6.67 463.88 -6.86 C 463.71 -6.94 463.5 -7.04 463.23 -7.16 C 462.64 -7.39 462.46 -7.46 461.8 -7.7 C 461.74 -7.72 461.65 -7.76 461.54 -7.79 C 461.06 -7.97 460.71 -8.1 460.51 -8.19 C 460.3 -8.27 460.04 -8.41 459.75 -8.61 C 459.15 -8.99 458.96 -9.5 458.96 -10.22 C 458.96 -11.5 459.88 -12.19 461.46 -12.19 C 462.41 -12.19 463.39 -11.88 464.41 -11.29 C 464.6 -11.18 464.79 -11.25 464.87 -11.43 L 465.35 -12.41 C 465.41 -12.55 465.39 -12.71 465.26 -12.8 C 464.14 -13.54 462.88 -13.9 461.46 -13.9 C 460.18 -13.9 459.13 -13.58 458.32 -12.95 C 457.51 -12.3 457.1 -11.37 457.1 -10.13 C 457.1 -9.18 457.39 -8.41 457.8 -7.9 C 458 -7.63 458.3 -7.38 458.68 -7.15 C 459.07 -6.9 459.43 -6.7 459.8 -6.55 C 460.16 -6.39 460.63 -6.2 461.2 -5.98 C 461.54 -5.85 461.78 -5.77 461.93 -5.71 C 462.08 -5.65 462.28 -5.55 462.54 -5.45 C 462.79 -5.34 462.97 -5.25 463.08 -5.18 C 463.3 -5.03 463.69 -4.77 463.8 -4.54 C 463.92 -4.3 464.04 -3.98 464.04 -3.62 C 464.04 -2.25 462.98 -1.46 461.3 -1.46 C 460.23 -1.46 459.18 -1.78 458.11 -2.43 C 458.02 -2.46 457.95 -2.47 457.91 -2.47 C 457.78 -2.47 457.69 -2.41 457.61 -2.29 Z" stroke-linecap="round" />
</g>
</g>
</g>
</svg>