<svg width="572" height="622" viewBox="0 0 572 622" fill="none" xmlns="http://www.w3.org/2000/svg">
<path d="M-229.602 0L-229.602 658M339.479 0V658M54.9387 0L54.9387 658M624.02 0V658M-158.467 0L-158.467 658M410.614 0V658M126.074 0L126.074 658M695.155 0V658M-87.3319 0L-87.3319 658M481.749 0V658M197.209 0L197.209 658M-16.1963 0L-16.1963 658M552.884 0V658M268.344 0V658M-301.107 657.63L765.92 657.629M-301.107 373.09L765.92 373.09M-301.107 586.495L765.92 586.495M-301.107 301.952L765.92 301.952M-301.107 515.358L765.92 515.358M-301.107 230.819L765.92 230.819M-301.107 444.223L765.92 444.223M-301.107 159.684L765.92 159.684M-301.107 88.5475L765.92 88.5474M-301.107 17.4127L765.92 17.4127" stroke="url(#paint0_linear_2053_1108)" stroke-width="0.740991" stroke-dasharray="8.34 8.34"/>
<defs>
<linearGradient id="paint0_linear_2053_1108" x1="232.001" y1="-70.5" x2="232.406" y2="658" gradientUnits="userSpaceOnUse">
<stop stop-color="#EBD98F" stop-opacity="0"/>
<stop offset="1" stop-color="#EBD98F"/>
</linearGradient>
</defs>
</svg>
