<svg width="87" height="87" viewBox="0 0 87 87" fill="none" xmlns="http://www.w3.org/2000/svg">
<path id="Vector" opacity="0.5" d="M64.7409 15.5896C59.0403 19.9201 54.1554 26.0392 50.512 31.4479C53.4643 25.5463 56.4366 18.233 57.3824 11.2954C58.0838 6.16043 54.4872 1.42601 49.3522 0.724672C44.2171 0.0233315 39.4827 3.61991 38.7814 8.75492C37.8128 15.8463 38.6861 23.6301 39.934 30.0278C37.8473 23.7678 34.7773 16.4951 30.5409 10.9185C27.4047 6.79018 21.5149 5.98574 17.3865 9.1219C13.2582 12.2581 12.4537 18.1479 15.5899 22.2763C19.9204 27.9769 26.0395 32.8618 31.4482 36.5052C25.5466 33.5528 18.2333 30.5805 11.2958 29.6348C6.16076 28.9334 1.42634 32.53 0.725 37.665C0.0236591 42.8 3.62023 47.5345 8.75525 48.2358C15.8466 49.2043 23.6305 48.331 30.0281 47.0832C23.7681 49.1699 16.4955 52.2399 10.9189 56.4763C6.79051 59.6125 5.98607 65.5023 9.12224 69.6307C12.2584 73.759 18.1483 74.5635 22.2766 71.4273C27.9772 67.0968 32.8622 60.9776 36.5055 55.569C33.5532 61.4706 30.5809 68.7839 29.6351 75.7214C28.9338 80.8564 32.5303 85.5908 37.6653 86.2922C42.8004 86.9935 47.5348 83.397 48.2361 78.2619C49.2047 71.1706 48.3314 63.3867 47.0836 56.9891C49.1702 63.2491 52.2403 70.5217 56.4766 76.0983C59.6128 80.2267 65.5026 81.0311 69.631 77.895C73.7593 74.7588 74.5638 68.8689 71.4276 64.7406C67.0971 59.04 60.978 54.155 55.5693 50.5117C61.4709 53.464 68.7842 56.4363 75.7217 57.3821C80.8568 58.0834 85.5912 54.4869 86.2925 49.3518C86.9939 44.2168 83.3973 39.4824 78.2623 38.7811C71.1709 37.8125 63.387 38.6858 56.9894 39.9336C63.2494 37.847 70.5221 34.7769 76.0987 30.5406C80.227 27.4044 81.0314 21.5145 77.8953 17.3862C74.7591 13.2578 68.8693 12.4534 64.7409 15.5896Z" fill="#B697EA"/>
</svg>
