<svg width="57" height="57" viewBox="0 0 57 57" fill="none" xmlns="http://www.w3.org/2000/svg">
<path id="Vector" opacity="0.5" d="M42.5781 10.3613C38.8416 13.1998 35.6397 17.2107 33.2516 20.7558C35.1868 16.8875 37.135 12.094 37.7549 7.54666C38.2146 4.18084 35.8572 1.07761 32.4914 0.617908C29.1256 0.158205 26.0223 2.51562 25.5626 5.88144C24.9278 10.5296 25.5002 15.6316 26.3181 19.825C24.9504 15.7218 22.9381 10.9549 20.1613 7.29961C18.1057 4.59362 14.2451 4.06634 11.5391 6.12198C8.83311 8.17762 8.30583 12.0382 10.3615 14.7442C13.2 18.4807 17.2108 21.6826 20.756 24.0707C16.8877 22.1356 12.0941 20.1873 7.54683 19.5674C4.18102 19.1077 1.07778 21.4651 0.61808 24.8309C0.158378 28.1968 2.5158 31.3 5.88161 31.7597C10.5297 32.3945 15.6318 31.8221 19.8252 31.0042C15.722 32.372 10.955 34.3842 7.29978 37.161C4.5938 39.2167 4.06652 43.0773 6.12216 45.7832C8.1778 48.4892 12.0384 49.0165 14.7444 46.9609C18.4809 44.1224 21.6828 40.1115 24.0709 36.5663C22.1357 40.4346 20.1875 45.2282 19.5676 49.7755C19.1079 53.1413 21.4653 56.2445 24.8311 56.7042C28.1969 57.1639 31.3002 54.8065 31.7599 51.4407C32.3947 46.7926 31.8223 41.6906 31.0044 37.4971C32.3721 41.6004 34.3844 46.3673 37.1612 50.0225C39.2168 52.7285 43.0774 53.2558 45.7834 51.2002C48.4894 49.1445 49.0167 45.2839 46.961 42.578C44.1225 38.8414 40.1117 35.6395 36.5665 33.2515C40.4348 35.1866 45.2284 37.1348 49.7757 37.7547C53.1415 38.2144 56.2447 35.857 56.7044 32.4912C57.1641 29.1254 54.8067 26.0222 51.4409 25.5625C46.7927 24.9276 41.6907 25.5 37.4973 26.3179C41.6005 24.9502 46.3675 22.9379 50.0227 20.1611C52.7287 18.1055 53.256 14.2449 51.2003 11.5389C49.1447 8.83293 45.2841 8.30565 42.5781 10.3613Z" fill="#FFF0B0"/>
</svg>
