<svg width="67" height="67" viewBox="0 0 67 67" fill="none" xmlns="http://www.w3.org/2000/svg">
<path id="Vector" opacity="0.5" d="M51.3679 12.9425C46.7177 15.9854 42.6017 20.4578 39.4858 24.4476C42.0934 20.0384 44.7934 14.5372 45.9037 9.2165C46.7265 5.27832 44.1993 1.41625 40.2611 0.593447C36.3229 -0.229351 32.4609 2.29783 31.6381 6.23602C30.5018 11.6746 30.7541 17.7497 31.3718 22.7718C30.097 17.8106 28.1158 12.0117 25.1391 7.46258C22.9354 4.0949 18.4183 3.15115 15.0506 5.35482C11.6829 7.55849 10.7392 12.0756 12.9429 15.4433C15.9858 20.0935 20.4581 24.2095 24.4479 27.3254C20.0387 24.7178 14.5375 22.0178 9.21682 20.9075C5.27864 20.0847 1.41657 22.6119 0.59377 26.5501C-0.229028 30.4883 2.29815 34.3503 6.23633 35.1731C11.6749 36.3094 17.75 36.0571 22.7721 35.4394C17.8109 36.7142 12.012 38.6954 7.4629 41.6721C4.09522 43.8758 3.15147 48.3929 5.35514 51.7606C7.55881 55.1283 12.0759 56.072 15.4436 53.8683C20.0938 50.8254 24.2098 46.3531 27.3257 42.3633C24.7181 46.7725 22.0181 52.2737 20.9078 57.5944C20.085 61.5326 22.6122 65.3946 26.5504 66.2174C30.4886 67.0402 34.3507 64.5131 35.1735 60.5749C36.3097 55.1363 36.0575 49.0612 35.4397 44.0391C36.7145 49.0003 38.6957 54.7992 41.6725 59.3483C43.8761 62.716 48.3932 63.6597 51.7609 61.4561C55.1286 59.2524 56.0723 54.7353 53.8687 51.3676C50.8258 46.7174 46.3534 42.6013 42.3636 39.4855C46.7728 42.0931 52.274 44.7931 57.5947 45.9034C61.5329 46.7262 65.395 44.199 66.2178 40.2608C67.0406 36.3226 64.5134 32.4605 60.5752 31.6377C55.1366 30.5015 49.0615 30.7537 44.0394 31.3715C49.0006 30.0967 54.7995 28.1155 59.3486 25.1387C62.7163 22.9351 63.66 18.418 61.4564 15.0503C59.2527 11.6826 54.7356 10.7389 51.3679 12.9425Z" fill="#FDFDFD"/>
</svg>
