<svg width="55" height="55" viewBox="0 0 55 55" fill="none" xmlns="http://www.w3.org/2000/svg">
<path id="Vector" opacity="0.5" d="M41.0393 9.61313C37.4101 12.3701 34.3002 16.2658 31.9807 19.7091C33.8603 15.9519 35.7525 11.296 36.3546 6.87934C36.8011 3.61019 34.5114 0.596083 31.2423 0.149584C27.9731 -0.296917 24.959 1.9928 24.5125 5.26194C23.8959 9.77659 24.4519 14.7321 25.2463 18.8051C23.9178 14.8197 21.9634 10.1897 19.2663 6.63938C17.2697 4.01111 13.52 3.49898 10.8918 5.49558C8.26349 7.49218 7.75136 11.2419 9.74796 13.8701C12.5049 17.4994 16.4006 20.6093 19.8439 22.9288C16.0868 21.0492 11.4309 19.157 7.01416 18.5548C3.74501 18.1083 0.730903 20.3981 0.284403 23.6672C-0.162098 26.9363 2.12761 29.9505 5.39676 30.397C9.9114 31.0136 14.8669 30.4576 18.9399 29.6632C14.9545 30.9916 10.3245 32.9461 6.7742 35.6432C4.14594 37.6398 3.6338 41.3895 5.6304 44.0177C7.627 46.646 11.3767 47.1581 14.005 45.1615C17.6342 42.4046 20.7441 38.5089 23.0636 35.0655C21.184 38.8227 19.2918 43.4786 18.6897 47.8953C18.2432 51.1645 20.5329 54.1786 23.802 54.6251C27.0712 55.0716 30.0853 52.7819 30.5318 49.5127C31.1484 44.9981 30.5924 40.0426 29.798 35.9696C31.1265 39.955 33.081 44.585 35.778 48.1353C37.7746 50.7636 41.5243 51.2757 44.1526 49.2791C46.7808 47.2825 47.293 43.5328 45.2964 40.9045C42.5394 37.2753 38.6437 34.1654 35.2004 31.8459C38.9575 33.7254 43.6134 35.6177 48.0301 36.2198C51.2993 36.6663 54.3134 34.3766 54.7599 31.1075C55.2064 27.8383 52.9167 24.8242 49.6475 24.3777C45.1329 23.7611 40.1774 24.3171 36.1044 25.1115C40.0898 23.783 44.7198 21.8285 48.2701 19.1315C50.8984 17.1349 51.4105 13.3852 49.4139 10.7569C47.4173 8.12867 43.6676 7.61653 41.0393 9.61313Z" fill="#B697EA"/>
</svg>
