<svg width="106" height="106" viewBox="0 0 106 106" fill="none" xmlns="http://www.w3.org/2000/svg">
<path id="Vector" opacity="0.5" d="M90.9704 32.6157C82.3236 34.5508 73.6728 38.919 66.7854 43.1277C73.1493 38.0082 80.2632 31.3104 84.903 23.991C88.3388 18.574 86.7317 11.3927 81.3147 7.9569C75.8977 4.52113 68.7163 6.12829 65.2806 11.5453C60.5358 19.0261 57.5068 28.2354 55.6137 36.0778C56.4919 27.9579 56.7855 18.1917 54.8924 9.73294C53.491 3.47093 47.2777 -0.469895 41.0157 0.931529C34.7537 2.33295 30.8129 8.54625 32.2143 14.8083C34.1494 23.4551 38.5176 32.1059 42.7263 38.9933C37.6067 32.6294 30.909 25.5155 23.5896 20.8756C18.1726 17.4399 10.9913 19.047 7.55551 24.464C4.11974 29.881 5.7269 37.0623 11.1439 40.4981C18.6247 45.2429 27.834 48.2718 35.6764 50.165C27.5565 49.2868 17.7903 48.9932 9.33155 50.8863C3.06954 52.2877 -0.871283 58.501 0.530141 64.763C1.93156 71.025 8.14486 74.9658 14.4069 73.5644C23.0537 71.6293 31.7045 67.2611 38.5919 63.0524C32.228 68.1719 25.1141 74.8697 20.4743 82.1891C17.0385 87.6061 18.6456 94.7874 24.0626 98.2232C29.4796 101.659 36.6609 100.052 40.0967 94.6348C44.8415 87.154 47.8705 77.9447 49.7636 70.1023C48.8854 78.2222 48.5918 87.9884 50.4849 96.4472C51.8863 102.709 58.0996 106.65 64.3616 105.249C70.6236 103.847 74.5644 97.6338 73.163 91.3718C71.2279 82.725 66.8597 74.0742 62.651 67.1868C67.7705 73.5507 74.4683 80.6646 81.7877 85.3044C87.2047 88.7402 94.386 87.133 97.8218 81.716C101.258 76.299 99.6504 69.1177 94.2334 65.682C86.7526 60.9372 77.5433 57.9082 69.7009 56.0151C77.8208 56.8933 87.587 57.1869 96.0458 55.2938C102.308 53.8924 106.249 47.6791 104.847 41.4171C103.446 35.1551 97.2325 31.2142 90.9704 32.6157Z" fill="#FF9B3E"/>
</svg>
