<svg width="49" height="49" viewBox="0 0 49 49" fill="none" xmlns="http://www.w3.org/2000/svg">
<path id="Vector" opacity="0.5" d="M43.993 29.8068C40.4571 27.7502 36.1566 26.5165 32.5036 25.7818C36.265 26.0437 40.7755 26.0063 44.643 24.9822C47.5058 24.225 49.2139 21.2883 48.4566 18.4254C47.6993 15.5626 44.7627 13.8545 41.8998 14.6118C37.9462 15.6576 34.0317 17.827 30.9306 19.8897C33.7749 17.4147 36.9376 14.1986 38.9495 10.7396C40.4389 8.17887 39.5703 4.89515 37.0095 3.40575C34.4488 1.91635 31.1651 2.78494 29.6757 5.34566C27.6191 8.88159 26.3854 13.182 25.6507 16.8351C25.9126 13.0737 25.8752 8.56314 24.8512 4.69571C24.0939 1.83283 21.1572 0.124777 18.2944 0.882051C15.4315 1.63933 13.7234 4.57597 14.4807 7.43885C15.5265 11.3924 17.6959 15.307 19.7586 18.4081C17.2836 15.5638 14.0675 12.4011 10.6085 10.3892C8.04779 8.89982 4.76407 9.76841 3.27467 12.3291C1.78527 14.8898 2.65386 18.1736 5.21458 19.663C8.75051 21.7196 13.0509 22.9533 16.704 23.688C12.9426 23.426 8.43206 23.4635 4.56463 24.4875C1.70175 25.2448 -0.00630177 28.1814 0.750971 31.0443C1.50825 33.9072 4.44489 35.6152 7.30777 34.858C11.2614 33.8122 15.1759 31.6427 18.277 29.58C15.4327 32.0551 12.27 35.2711 10.2581 38.7302C8.76874 41.2909 9.63733 44.5746 12.198 46.064C14.7588 47.5534 18.0425 46.6848 19.5319 44.1241C21.5885 40.5882 22.8222 36.2877 23.5569 32.6347C23.295 36.3961 23.3324 40.9066 24.3564 44.774C25.1137 47.6369 28.0503 49.345 30.9132 48.5877C33.7761 47.8304 35.4842 44.8938 34.7269 42.0309C33.6811 38.0773 31.5117 34.1627 29.449 31.0617C31.924 33.906 35.14 37.0686 38.5991 39.0805C41.1598 40.5699 44.4435 39.7013 45.9329 37.1406C47.4223 34.5799 46.5537 31.2962 43.993 29.8068Z" fill="#B697EA"/>
</svg>
